<?xml version="1.0" standalone="no"?>
<!DOCTYPE svg PUBLIC "-//W3C//DTD SVG 20010904//EN"
 "http://www.w3.org/TR/2001/REC-SVG-20010904/DTD/svg10.dtd">
<svg version="1.0" xmlns="http://www.w3.org/2000/svg"
 width="960.000000pt" height="960.000000pt" viewBox="0 0 960.000000 960.000000"
 preserveAspectRatio="xMidYMid meet">
<metadata>
Created by potrace 1.11, written by Peter Selinger 2001-2013
</metadata>
<g transform="translate(0.000000,960.000000) scale(0.100000,-0.100000)"
fill="#000000" stroke="none">
<path d="M3424 8329 l16 -26 -44 7 c-25 4 -45 4 -44 1 1 -16 -4 -28 -22 -51
-11 -14 -18 -18 -14 -9 3 10 0 20 -7 25 -8 5 -10 3 -4 -6 6 -9 2 -10 -16 -5
-22 6 -23 6 -6 -7 19 -14 14 -53 -6 -41 -7 4 -8 0 -3 -12 5 -15 4 -16 -9 -5
-16 13 -20 31 -7 29 19 -3 32 2 32 13 0 6 -3 8 -7 5 -3 -4 -13 -1 -21 6 -13
10 -14 9 -8 -1 4 -7 1 -15 -9 -18 -9 -4 -12 -11 -7 -18 4 -6 8 -18 7 -26 0 -8
3 -18 8 -21 4 -3 1 -12 -8 -19 -13 -11 -14 -10 -9 5 6 14 4 16 -7 9 -8 -4 -23
-8 -34 -6 -15 1 -14 -1 5 -9 24 -10 24 -11 6 -25 -19 -13 -19 -14 0 -36 10
-12 14 -18 7 -15 -6 4 -16 1 -20 -8 -7 -12 -10 -11 -21 5 -7 12 -8 20 -2 20 5
0 10 -5 10 -11 0 -5 5 -7 11 -3 8 5 6 10 -6 16 -20 12 -48 -8 -29 -20 18 -12
23 -50 6 -48 -23 2 -23 -33 1 -56 l22 -20 -22 11 c-19 10 -23 9 -23 -5 0 -14
-3 -15 -17 -3 -15 11 -16 11 -5 -1 6 -8 12 -18 12 -23 0 -4 -6 -5 -12 -1 -8 5
-8 1 1 -10 13 -15 13 -19 0 -28 -11 -8 -10 -9 4 -4 10 3 16 2 12 -3 -3 -5 1
-12 7 -15 7 -3 2 -3 -12 0 -17 4 -21 2 -11 -4 11 -8 11 -10 0 -14 -8 -3 -10
-9 -6 -14 4 -5 12 -2 17 6 5 8 12 11 17 7 4 -5 1 -12 -6 -16 -11 -7 -11 -10 0
-14 11 -4 11 -6 1 -6 -8 -1 -10 -6 -5 -13 12 -20 12 -37 1 -44 -5 -3 -2 -14 7
-25 17 -17 16 -18 -11 -14 -16 2 -23 2 -16 -1 6 -3 12 -15 12 -25 0 -14 4 -18
13 -13 8 5 8 2 -2 -9 -13 -17 -26 -24 -17 -9 2 4 -3 16 -11 27 -11 14 -14 15
-10 4 3 -9 0 -22 -6 -29 -8 -9 -9 -11 -1 -7 7 4 17 0 23 -7 10 -11 8 -17 -6
-25 -11 -6 -13 -11 -5 -11 7 0 10 -5 6 -12 -4 -7 -3 -8 5 -4 6 4 9 12 6 17 -3
5 1 6 9 3 9 -3 16 -10 16 -16 0 -5 -4 -6 -10 -3 -5 3 -10 -1 -10 -10 0 -10 -5
-13 -12 -9 -7 4 -8 3 -4 -4 4 -7 2 -12 -5 -12 -7 0 -4 -6 6 -14 11 -8 23 -12
27 -10 4 2 9 0 12 -5 3 -5 -8 -7 -24 -6 -17 1 -33 -1 -36 -6 -3 -5 0 -8 8 -7
7 2 12 -3 10 -11 -3 -12 0 -12 12 -2 11 10 19 10 33 1 16 -10 16 -11 1 -6 -24
7 -32 -10 -11 -24 15 -8 13 -9 -8 -4 -16 3 -30 1 -34 -7 -5 -7 -4 -10 3 -6 14
9 39 -1 46 -19 3 -8 2 -13 -3 -10 -5 3 -12 -1 -15 -10 -3 -8 -2 -12 4 -9 15 9
12 -8 -7 -35 l-17 -25 22 19 c24 21 28 16 12 -14 -7 -14 -6 -23 5 -34 8 -8 15
-20 15 -26 0 -6 6 -8 13 -4 10 6 10 4 0 -7 -7 -7 -13 -17 -13 -22 0 -4 6 -5
13 -1 9 6 9 4 1 -7 -6 -8 -10 -21 -8 -29 1 -8 5 -24 7 -35 4 -16 0 -21 -15
-22 -20 -2 -20 -1 -2 12 11 8 14 15 8 15 -6 0 -10 12 -9 28 2 32 -3 44 -16 36
-5 -3 -6 -11 -2 -17 13 -21 10 -59 -4 -64 -12 -5 -12 -7 -2 -14 7 -4 14 -15
15 -23 1 -9 -2 -13 -9 -9 -6 4 -8 0 -4 -10 3 -9 2 -19 -4 -22 -5 -4 -9 -3 -8
2 3 20 -2 34 -11 28 -6 -3 -13 1 -16 9 -5 13 -8 13 -20 1 -20 -20 -17 -30 4
-14 15 13 16 12 4 -3 -8 -9 -20 -14 -28 -11 -17 6 -18 15 -4 29 7 7 6 11 -4
11 -8 0 -13 -4 -10 -9 3 -4 -3 -8 -13 -8 -11 0 -25 -6 -32 -12 -10 -11 -12
-10 -9 2 2 8 -3 14 -9 13 -7 -2 -13 2 -13 8 0 6 -8 8 -19 4 -12 -3 -21 0 -25
10 -3 9 -2 14 2 11 5 -3 9 1 9 9 0 13 -3 12 -18 -1 -10 -9 -16 -22 -12 -28 4
-6 -3 -2 -15 8 -12 11 -22 16 -22 11 0 -4 -6 -2 -13 4 -8 6 -16 9 -19 6 -2 -3
-5 1 -5 8 0 8 6 14 13 14 7 0 10 -5 7 -10 -4 -6 -1 -7 7 -2 9 5 11 4 6 -3 -5
-8 -2 -10 8 -6 10 4 16 1 16 -7 0 -15 13 -3 16 14 1 8 -8 13 -20 13 -14 -1
-20 4 -18 14 3 12 1 12 -9 3 -6 -6 -18 -9 -25 -6 -8 3 -14 0 -14 -6 0 -6 -5
-11 -11 -11 -5 0 -8 4 -5 9 3 5 -1 11 -9 14 -9 4 -12 1 -8 -9 3 -7 1 -14 -4
-14 -5 0 -10 7 -11 15 -1 8 -3 21 -4 28 -1 8 -7 14 -14 14 -7 0 -10 -5 -6 -11
15 -24 11 -36 -9 -25 -11 5 -23 7 -28 4 -5 -3 -12 4 -16 15 -3 11 -11 20 -17
20 -6 0 -8 -3 -5 -7 4 -3 1 -13 -6 -21 -10 -13 -9 -15 4 -10 9 3 16 1 16 -6 0
-6 -8 -12 -18 -12 -10 0 -15 4 -13 8 6 10 -32 29 -41 20 -3 -4 -12 -7 -18 -7
-7 -1 -11 -7 -9 -14 1 -7 -2 -10 -8 -6 -6 3 -8 11 -5 16 4 5 1 9 -6 9 -8 0 -7
5 2 18 13 15 12 16 -3 3 -10 -7 -18 -10 -18 -6 0 4 -7 2 -15 -5 -8 -7 -15 -9
-15 -4 -1 5 -7 -2 -14 -16 -8 -14 -12 -28 -10 -32 2 -3 0 -9 -6 -13 -6 -4 -7
-12 -4 -18 4 -8 2 -7 -7 1 -11 11 -12 14 -1 21 10 6 8 10 -8 14 -16 4 -20 2
-16 -8 5 -15 -27 -31 -54 -27 -11 2 -10 0 2 -8 13 -8 24 -8 40 1 23 12 23 12
3 -8 -11 -11 -30 -18 -45 -17 -14 2 -17 1 -7 -2 9 -3 14 -10 10 -16 -4 -8 0
-9 13 -5 18 7 18 6 2 -6 -11 -9 -14 -17 -8 -23 6 -6 2 -10 -10 -11 -11 -1 -20
3 -20 8 0 6 4 8 8 5 5 -3 9 1 9 9 0 8 -6 16 -13 19 -8 3 -11 0 -8 -8 3 -7 -3
-22 -13 -32 -17 -17 -17 -17 0 -11 9 4 17 2 17 -4 0 -6 7 -8 16 -5 8 3 12 2 9
-4 -3 -5 -19 -7 -35 -5 -22 2 -28 0 -23 -8 11 -17 10 -51 0 -58 -5 -3 -2 -9 6
-12 11 -4 15 0 12 13 -2 11 1 22 6 26 17 10 23 -4 9 -21 -10 -12 -10 -15 1
-16 8 0 4 -5 -7 -11 -21 -10 -22 -10 -3 -29 10 -10 19 -27 18 -36 0 -14 -2
-14 -9 3 -9 24 -30 41 -30 25 0 -5 6 -11 13 -14 9 -3 9 -10 -2 -28 -13 -23
-13 -23 4 -9 17 14 18 13 12 -8 -4 -17 -2 -22 8 -18 7 2 19 -2 26 -10 7 -8 8
-14 3 -13 -19 3 -29 -2 -17 -9 6 -4 13 -14 15 -22 2 -8 9 -21 16 -28 16 -18
15 -27 -4 -47 -15 -15 -14 -16 12 -10 16 3 24 3 17 -1 -9 -4 -9 -11 -1 -29 8
-18 8 -28 0 -38 -9 -10 -8 -17 1 -27 10 -10 8 -12 -8 -6 -16 6 -18 5 -7 -5 9
-10 15 -10 24 -1 7 7 17 12 23 12 5 0 4 -4 -3 -8 -19 -12 -24 -52 -6 -45 8 3
14 1 14 -5 0 -16 -26 -22 -41 -9 -8 8 -8 5 1 -7 18 -23 18 -20 3 -38 -10 -12
-10 -15 2 -15 8 0 11 5 8 10 -3 6 -1 7 5 4 5 -4 8 -17 4 -29 -3 -12 -7 -17
-10 -10 -7 23 -22 12 -18 -13 3 -13 1 -27 -3 -30 -5 -2 -8 3 -8 13 0 33 -3 40
-18 46 -13 5 -14 2 -4 -15 6 -11 8 -23 5 -27 -3 -3 -6 0 -6 6 0 7 -7 12 -16
12 -8 0 -13 4 -10 8 2 4 0 14 -5 22 -7 11 -8 7 -5 -12 3 -15 0 -31 -6 -34 -7
-4 -8 -2 -4 4 4 8 -5 10 -28 8 -19 -1 -33 1 -30 6 7 12 -10 10 -22 -2 -7 -7
-11 -6 -11 4 0 8 3 13 7 11 4 -2 7 2 7 10 0 8 -4 15 -9 15 -4 0 -8 -4 -8 -9 0
-15 -29 -6 -46 15 -15 17 -15 17 0 -8 11 -19 13 -29 4 -34 -7 -4 -8 -3 -4 4 9
15 -6 16 -20 2 -8 -8 -15 -6 -24 5 -17 21 -36 19 -19 -2 11 -15 10 -14 -9 1
-20 17 -27 15 -23 -6 2 -15 -7 -8 -25 20 -11 17 -12 23 -3 16 21 -17 48 -14
41 5 -4 10 -7 11 -10 3 -2 -7 -8 -12 -13 -12 -6 0 -8 4 -5 9 4 5 -2 8 -11 7
-10 -2 -18 -9 -18 -17 0 -15 -19 -17 -48 -4 -17 7 -17 8 0 29 l18 21 -22 -19
c-13 -11 -23 -16 -23 -11 0 4 -6 2 -14 -4 -10 -8 -16 -9 -21 -1 -8 13 -25 13
-25 0 0 -6 3 -9 8 -8 4 2 8 0 10 -4 2 -9 -2 -10 -23 -2 -8 3 -12 10 -9 15 3 5
-2 6 -10 3 -9 -3 -14 -9 -11 -13 2 -4 -2 -8 -10 -8 -8 0 -12 4 -10 8 3 3 -1
12 -8 18 -10 8 -14 7 -14 -4 0 -8 4 -12 9 -9 4 3 5 -2 1 -11 -3 -9 -9 -13 -12
-8 -8 11 -31 15 -31 5 0 -4 3 -12 8 -18 4 -5 0 -1 -10 8 -9 11 -18 14 -21 8
-3 -6 -4 -5 -3 2 2 7 13 12 24 12 12 -1 22 3 22 7 0 5 -14 7 -31 4 -22 -4 -28
-2 -23 6 4 8 3 9 -4 5 -6 -4 -9 -13 -6 -20 3 -8 0 -17 -7 -22 -7 -4 -10 -3 -6
3 4 6 -1 14 -11 18 -24 11 -62 13 -56 4 2 -4 13 -6 24 -4 12 2 18 0 15 -6 -4
-5 -1 -9 5 -9 6 0 8 -5 4 -11 -4 -8 -9 -7 -14 2 -5 7 -14 14 -22 15 -7 2 -23
5 -35 8 -13 3 -23 0 -23 -6 0 -5 7 -8 15 -5 8 4 17 2 20 -4 4 -5 3 -9 -2 -8
-21 4 -44 -2 -39 -9 7 -12 -35 -8 -60 5 -12 7 -26 8 -34 3 -8 -5 -17 -7 -20
-5 -4 2 -7 -2 -7 -10 0 -11 4 -11 22 1 20 13 24 12 36 -3 10 -14 10 -16 0 -6
-16 13 -44 6 -34 -10 3 -6 1 -7 -5 -3 -6 3 -16 -2 -22 -11 -11 -17 -11 -17 -6
0 3 9 1 17 -4 17 -5 0 -7 8 -4 18 5 16 5 16 -6 -1 -6 -9 -9 -21 -5 -26 3 -5 0
-13 -6 -17 -7 -4 -9 -3 -5 4 3 6 2 13 -4 17 -9 6 -14 -8 -11 -28 1 -5 -3 -6
-9 -2 -5 3 -10 14 -11 23 0 14 -2 13 -9 -3 -5 -11 -9 -15 -9 -8 -1 7 -12 1
-26 -13 -14 -14 -30 -22 -37 -18 -7 4 -8 3 -4 -4 5 -9 13 -9 29 0 12 7 26 11
30 10 5 -1 6 1 3 6 -3 5 1 9 9 9 8 0 15 -4 15 -9 0 -4 -4 -8 -10 -8 -19 0 -25
-2 -52 -21 -30 -22 -42 -24 -32 -6 6 9 5 9 -7 0 -12 -10 -18 -10 -29 0 -12 10
-12 9 -2 -4 10 -13 9 -19 -1 -28 -8 -6 -12 -22 -9 -36 2 -15 0 -25 -7 -25 -7
0 -10 4 -7 8 2 4 0 14 -6 22 -8 12 -9 12 -4 -2 3 -11 0 -18 -7 -18 -7 0 -8 -3
-2 -8 6 -4 17 -16 25 -26 15 -19 14 -19 -11 -2 -26 16 -26 16 -24 -9 2 -14 -2
-25 -8 -25 -9 0 -9 -2 -1 -8 6 -4 11 -14 11 -22 0 -8 2 -19 3 -25 7 -28 -1
-44 -18 -38 -11 3 -9 0 6 -12 13 -9 30 -14 39 -11 12 5 13 4 5 -7 -7 -8 -8
-17 -4 -21 4 -4 0 -6 -8 -4 -8 1 -21 10 -28 18 -11 13 -11 11 -2 -8 6 -12 15
-20 20 -17 4 3 15 -1 23 -9 8 -8 18 -12 23 -8 5 4 3 -1 -4 -10 -11 -14 -10
-19 13 -34 15 -10 24 -23 21 -31 -3 -7 4 -23 17 -36 12 -12 22 -26 22 -32 0
-5 9 -9 20 -8 11 1 14 0 8 -3 -7 -3 -13 -12 -13 -20 0 -9 -5 -12 -12 -8 -7 4
-8 3 -4 -4 4 -6 13 -9 20 -6 8 3 17 0 21 -6 5 -8 10 -8 20 0 9 8 15 8 20 0 4
-6 1 -9 -6 -8 -6 2 -14 -3 -17 -11 -3 -8 0 -11 6 -7 7 4 9 -2 7 -16 -4 -22 -4
-22 10 -4 20 27 19 6 -1 -23 -16 -22 -16 -23 4 -12 11 6 22 14 24 18 5 9 1
-10 -8 -34 -5 -14 -4 -14 9 2 8 11 19 17 23 12 4 -4 2 -7 -4 -7 -7 0 -12 -8
-12 -17 0 -13 3 -14 12 -5 7 7 17 12 23 12 5 0 3 -5 -5 -10 -12 -7 -12 -12 -2
-22 16 -16 16 -31 0 -22 -8 4 -9 3 -5 -2 5 -5 16 -9 25 -9 10 0 16 -7 14 -15
-1 -10 4 -8 16 6 18 21 19 21 30 3 8 -12 8 -19 2 -19 -5 0 -10 -5 -10 -10 0
-6 11 -8 25 -6 15 3 23 1 20 -5 -4 -5 -11 -6 -17 -3 -7 4 -8 2 -4 -4 4 -7 14
-12 22 -12 9 0 14 -6 11 -12 -6 -19 12 -50 25 -42 8 5 9 1 5 -10 -4 -10 -3
-15 3 -11 6 4 10 12 9 18 -4 33 1 40 15 21 13 -17 12 -21 -2 -39 -17 -19 -17
-19 11 -1 16 10 29 16 30 14 1 -2 8 -14 15 -27 8 -12 10 -21 5 -18 -5 3 -15 1
-23 -4 -13 -9 -13 -10 0 -8 24 3 54 -13 40 -21 -8 -5 -7 -9 3 -13 19 -7 16 21
-2 33 -8 5 -9 10 -3 14 6 3 16 -7 23 -23 11 -25 19 -29 41 -27 15 2 25 -1 22
-6 -4 -5 3 -18 15 -29 12 -11 18 -26 15 -37 -5 -14 -4 -15 5 -2 8 11 11 12 11
2 0 -8 5 -10 13 -6 8 5 7 2 -2 -9 -8 -10 -11 -20 -7 -24 3 -3 6 -1 6 7 0 10 4
10 17 -1 14 -12 16 -12 11 2 -4 9 -1 16 7 16 16 0 4 -31 -17 -43 -7 -4 -8 -3
-4 4 5 8 2 10 -8 6 -12 -5 -13 -9 -3 -19 7 -8 16 -10 22 -4 5 5 13 9 19 9 5 0
1 -6 -10 -14 -11 -9 -23 -11 -30 -5 -7 5 -11 4 -11 -6 0 -8 4 -12 9 -9 4 3 8
0 8 -7 0 -9 3 -9 14 0 10 8 16 9 21 1 4 -6 1 -9 -7 -8 -7 2 -12 -2 -11 -9 2
-7 -4 -10 -15 -7 -14 5 -14 3 3 -12 l20 -17 -20 8 c-11 3 -28 8 -38 10 -16 4
-17 2 -5 -12 11 -14 11 -16 -4 -11 -10 4 -19 1 -22 -8 -4 -10 -2 -13 7 -8 9 5
9 4 1 -5 -9 -10 -17 -10 -33 -2 -12 7 -21 9 -21 5 0 -3 -8 0 -17 7 -16 13 -17
12 -4 -3 11 -14 11 -18 1 -18 -8 0 -10 -3 -7 -6 4 -4 13 -1 21 5 11 9 16 9 22
0 5 -8 3 -9 -6 -4 -10 6 -12 4 -8 -7 5 -12 0 -14 -32 -8 -41 8 -74 -2 -45 -13
10 -5 14 -3 9 5 -4 7 -3 8 5 4 6 -4 9 -12 5 -17 -3 -5 -9 -7 -14 -4 -5 3 -11
1 -15 -5 -3 -5 -12 -10 -18 -10 -9 0 -9 2 0 8 9 5 6 12 -10 21 -20 13 -21 13
-9 -2 9 -10 10 -17 2 -22 -5 -3 -10 0 -10 7 0 8 -5 6 -11 -5 -6 -10 -15 -14
-22 -10 -7 4 -5 -1 3 -11 12 -16 12 -19 -3 -28 -10 -5 -14 -15 -11 -21 4 -7 1
-6 -7 2 -11 10 -11 15 -1 18 18 7 14 22 -5 18 -11 -1 -17 -9 -15 -20 2 -11 -1
-14 -8 -10 -9 6 -9 2 -1 -14 10 -18 9 -20 -6 -14 -13 5 -15 3 -10 -11 4 -10 3
-15 -4 -11 -5 4 -7 15 -4 26 4 11 2 19 -5 19 -6 0 -8 -4 -5 -10 3 -5 1 -10 -5
-10 -8 0 -7 -6 1 -21 7 -13 7 -19 1 -15 -6 3 -14 2 -17 -4 -5 -8 -11 -7 -21 1
-8 6 -15 9 -15 5 -9 -44 -21 -66 -31 -60 -7 5 -9 1 -5 -8 8 -22 -17 -56 -28
-38 -5 8 -4 11 2 7 6 -4 13 0 17 8 3 8 2 15 -3 15 -12 0 -32 -26 -26 -32 3 -3
7 -15 10 -26 3 -15 0 -19 -12 -15 -9 3 -11 8 -5 12 7 4 4 15 -7 29 -16 21 -17
22 -17 3 0 -11 4 -17 8 -15 13 8 9 -11 -4 -25 -7 -8 -8 -11 -3 -8 6 3 15 -6
22 -19 6 -13 7 -22 2 -18 -5 3 -9 0 -9 -5 0 -6 5 -11 10 -11 6 0 10 -5 10 -10
0 -6 -8 -5 -19 2 -14 9 -17 16 -10 24 11 13 -7 32 -18 20 -4 -3 -1 -6 7 -6 10
0 10 -3 1 -14 -8 -10 -9 -16 -1 -21 6 -3 7 -11 4 -17 -4 -6 -3 -9 2 -6 5 3 17
-2 27 -12 16 -16 16 -19 3 -33 -10 -9 -12 -17 -5 -19 5 -2 11 -12 13 -23 3
-22 21 -31 31 -16 3 6 11 11 18 11 8 0 8 -3 -1 -12 -18 -18 -15 -24 18 -38 22
-9 28 -16 20 -25 -12 -15 -3 -25 17 -18 12 5 12 7 1 14 -9 6 -9 9 -1 9 19 0
26 -20 12 -38 -7 -9 -9 -14 -5 -10 5 4 15 3 23 -4 10 -8 17 -8 26 1 9 10 8 11
-8 6 -15 -5 -16 -4 -6 3 9 7 10 12 2 16 -6 4 -11 15 -11 24 0 12 4 10 13 -8 8
-14 19 -24 26 -22 7 1 6 -7 -5 -23 -9 -14 -15 -26 -13 -26 2 -1 17 -3 34 -5
20 -2 25 0 16 5 -8 5 -21 7 -30 4 -12 -3 -11 0 3 11 11 9 25 16 30 16 6 0 5
-4 -2 -8 -9 -6 -5 -12 15 -22 15 -7 32 -13 36 -11 5 1 6 -3 2 -9 -9 -14 8 -13
23 2 8 8 12 8 12 1 0 -6 -7 -13 -15 -17 -8 -3 -12 -12 -9 -20 5 -13 9 -12 23
6 17 20 18 20 18 2 0 -10 -5 -23 -11 -27 -6 -5 -1 -5 11 -2 19 5 22 3 17 -12
-4 -13 -3 -15 4 -5 5 8 11 13 13 12 2 -1 12 2 22 6 10 4 25 0 35 -9 9 -8 24
-13 33 -12 9 2 16 -4 17 -11 1 -8 3 -21 4 -29 1 -11 5 -12 14 -4 8 6 14 6 18
0 3 -5 1 -11 -5 -13 -7 -2 1 -12 16 -22 15 -10 25 -14 22 -9 -3 5 -1 15 4 23
9 13 10 13 6 0 -2 -8 3 -23 12 -33 13 -15 13 -18 1 -15 -8 2 -14 -3 -12 -10 1
-8 -2 -11 -8 -7 -6 3 -8 11 -5 16 3 5 -1 6 -9 3 -9 -3 -16 -10 -16 -16 0 -5 4
-6 10 -3 10 6 15 -10 10 -30 -1 -5 -3 -15 -3 -21 0 -15 -20 -12 -43 6 -15 13
-16 13 -9 1 6 -11 4 -13 -8 -8 -11 4 -14 2 -11 -8 3 -8 12 -11 20 -8 8 3 14 0
14 -6 0 -6 -6 -10 -12 -8 -7 1 -12 -5 -10 -13 3 -12 1 -13 -9 -2 -20 18 -33
14 -18 -5 13 -16 12 -17 -2 -5 -23 18 -59 24 -56 9 1 -7 -3 -11 -10 -10 -8 2
-10 -4 -6 -14 4 -10 2 -14 -4 -10 -6 4 -13 -2 -16 -13 -3 -11 -11 -20 -17 -20
-10 0 -10 4 0 15 11 13 10 14 -4 9 -10 -4 -15 -13 -11 -21 3 -11 1 -13 -10
-10 -8 4 -17 2 -20 -4 -4 -5 -11 -7 -16 -4 -5 3 -6 0 -3 -8 3 -8 -2 -20 -11
-27 -8 -7 -15 -9 -15 -4 0 5 -7 -2 -16 -14 -8 -12 -13 -26 -9 -31 3 -5 1 -12
-5 -16 -6 -4 -8 -11 -5 -16 4 -5 2 -9 -4 -9 -5 0 -9 9 -8 19 0 11 5 17 11 14
5 -4 6 -1 2 6 -9 13 -21 6 -21 -11 0 -6 -6 -13 -13 -16 -7 -2 -10 2 -6 12 3 9
2 16 -4 16 -6 0 -9 -8 -7 -17 2 -10 4 -22 4 -26 1 -5 7 -5 14 -1 6 4 2 -4 -11
-17 -19 -20 -24 -22 -32 -9 -5 8 -12 11 -16 7 -4 -3 -2 -12 4 -20 8 -10 6 -13
-9 -14 -13 -1 -17 2 -12 10 4 7 0 6 -10 -2 -18 -14 -24 -47 -7 -36 6 4 7 11 4
17 -4 7 -2 8 4 4 16 -9 15 -11 -5 -32 -10 -10 -18 -22 -18 -28 0 -6 -6 -12
-12 -12 -7 -1 -17 -2 -23 -3 -5 0 -10 -6 -10 -12 0 -6 7 -8 16 -5 9 3 12 2 9
-4 -4 -6 -14 -9 -23 -8 -9 2 -16 -3 -15 -9 2 -7 -3 -12 -10 -10 -6 1 -11 -4
-9 -11 1 -8 -2 -11 -8 -7 -6 3 -7 12 -3 18 5 8 2 8 -9 0 -8 -7 -19 -9 -23 -5
-5 4 -5 1 -1 -6 4 -7 12 -10 17 -7 5 4 9 1 9 -6 0 -6 -8 -9 -18 -7 -11 3 -19
0 -19 -8 0 -7 4 -11 8 -8 4 2 11 0 14 -6 4 -6 3 -9 -2 -8 -14 4 -53 -13 -53
-23 0 -6 7 -6 19 1 25 13 31 13 31 0 0 -5 -3 -9 -7 -9 -20 3 -34 -2 -28 -10 3
-5 0 -13 -6 -17 -8 -4 -9 -3 -5 4 4 7 2 12 -5 12 -7 0 -9 -10 -6 -25 4 -24 3
-25 -14 -9 -10 9 -16 20 -14 25 3 4 2 10 -3 13 -4 2 -8 -6 -8 -19 0 -13 3 -22
6 -20 3 2 12 -5 18 -16 12 -19 11 -19 -8 -9 -16 9 -20 8 -20 -5 0 -10 5 -13
12 -9 7 4 8 3 4 -4 -4 -7 -14 -12 -22 -12 -8 0 -14 -5 -14 -11 0 -5 4 -8 9 -4
5 3 13 1 16 -5 4 -6 1 -9 -6 -8 -7 2 -14 -4 -15 -12 0 -8 -2 -17 -3 -20 -2 -3
-4 -16 -5 -28 -3 -23 -24 -45 -36 -37 -3 2 -5 -10 -5 -25 -1 -16 3 -26 8 -23
5 3 6 -5 3 -18 -7 -24 -7 -24 9 -4 16 19 16 19 9 -10 -4 -16 -12 -33 -18 -37
-6 -4 -1 -6 11 -6 14 2 19 7 16 18 -4 9 0 7 10 -5 14 -18 14 -22 1 -37 -20
-21 0 -35 23 -16 15 12 15 11 5 -8 -12 -22 0 -44 22 -44 6 0 4 5 -4 10 -13 8
-13 10 1 10 9 0 20 -7 23 -16 9 -22 8 -26 -6 -18 -7 4 -8 3 -4 -4 4 -6 13 -9
21 -6 11 5 12 11 5 24 -6 11 -6 21 -2 24 8 5 12 -7 13 -46 0 -9 7 -19 14 -22
9 -3 12 0 9 8 -3 8 -1 16 3 19 5 3 10 -4 10 -16 1 -11 9 -25 18 -29 8 -5 12
-15 8 -21 -3 -7 3 -3 15 7 12 11 25 16 29 13 3 -4 0 -7 -8 -8 -8 0 -4 -4 9
-10 13 -5 21 -13 17 -19 -4 -6 1 -7 11 -3 10 4 15 2 11 -4 -3 -5 0 -10 8 -10
11 0 12 4 4 14 -6 7 -8 13 -4 13 4 0 1 8 -6 18 -13 15 -12 16 3 3 10 -7 16
-17 13 -21 -3 -4 2 -11 11 -14 9 -3 12 -11 8 -18 -4 -9 -2 -8 7 1 11 10 11 15
2 18 -15 5 -17 23 -4 23 5 0 13 -9 16 -21 4 -12 12 -18 21 -15 8 3 14 -1 14
-9 0 -7 4 -16 9 -19 5 -4 7 2 4 12 -2 11 3 24 14 32 15 12 16 12 6 0 -18 -20
-16 -35 2 -20 8 7 15 9 15 4 0 -5 5 -2 11 6 9 13 10 13 6 0 -2 -8 -10 -14 -16
-13 -18 5 -13 -4 17 -23 17 -11 23 -12 15 -3 -9 11 -8 19 4 34 13 16 15 17 10
3 -8 -21 1 -48 15 -48 6 0 5 6 -2 15 -8 10 -9 15 -2 15 6 0 16 -8 21 -17 10
-17 10 -17 11 -1 0 14 4 16 25 8 15 -6 26 -6 30 1 4 5 10 7 15 4 5 -3 11 -1
15 5 3 5 1 10 -6 10 -7 0 -10 2 -7 5 3 3 13 3 22 -1 15 -6 15 -7 -1 -19 -10
-7 -22 -11 -28 -8 -5 4 -6 2 -2 -2 10 -12 38 -15 31 -4 -3 5 2 9 11 9 10 0 13
-5 9 -12 -5 -7 -3 -8 5 -4 7 5 10 14 7 22 -4 11 -2 12 14 4 21 -11 36 2 24 22
-5 7 -3 8 5 4 7 -5 10 -15 7 -22 -5 -12 2 -14 37 -10 23 3 43 5 45 5 2 1 0 7
-4 14 -6 9 -4 9 7 -1 20 -18 33 -15 18 6 -13 15 -12 16 4 3 12 -9 14 -17 7
-26 -7 -8 -5 -12 5 -12 8 0 12 4 10 7 -3 4 6 8 20 8 16 0 22 -5 18 -12 -5 -7
-2 -7 8 1 16 13 36 12 59 -2 12 -7 13 -6 3 7 -7 8 -9 19 -5 23 4 5 0 4 -8 0
-23 -14 -47 -13 -47 1 0 9 6 10 17 4 11 -6 21 -5 29 3 10 9 14 8 22 -6 6 -9
15 -15 20 -11 5 3 17 0 26 -8 15 -12 15 -11 3 9 -11 16 -17 19 -27 11 -9 -7
-13 -7 -13 1 0 6 3 11 8 12 4 0 18 2 30 3 13 2 30 -4 38 -11 12 -12 14 -12 14
4 0 10 5 25 11 33 9 13 10 12 5 -2 -3 -10 -1 -28 5 -40 l10 -23 -5 22 c-2 13
0 26 5 29 5 3 9 -2 9 -11 0 -14 3 -14 30 0 17 9 30 11 30 6 0 -5 -6 -12 -12
-15 -7 -3 -3 -3 10 0 16 4 22 1 23 -13 0 -11 3 -13 6 -5 3 7 -1 19 -7 28 -7 8
-10 17 -6 21 3 3 6 2 6 -3 0 -18 42 -55 56 -50 7 3 16 0 20 -6 4 -7 3 -8 -4
-4 -7 4 -12 2 -12 -5 0 -8 -3 -9 -14 0 -11 9 -13 6 -10 -16 1 -15 -3 -34 -9
-42 -9 -12 -9 -13 1 -7 6 4 12 3 12 -3 0 -5 -5 -13 -10 -16 -6 -4 -10 -12 -9
-18 3 -27 -2 -38 -13 -31 -10 6 -10 4 0 -8 9 -11 9 -18 2 -21 -7 -4 -7 -5 1
-4 6 2 10 6 10 10 -1 4 5 20 13 36 9 16 12 31 9 35 -4 3 -1 6 5 6 6 0 10 -9 9
-20 -1 -11 -5 -20 -9 -20 -4 0 -8 -5 -8 -11 0 -5 6 -7 13 -3 6 4 1 -5 -13 -20
-14 -15 -24 -29 -22 -32 6 -11 1 -24 -8 -19 -6 3 -13 -1 -16 -9 -3 -9 -11 -13
-17 -9 -6 3 -7 1 -3 -6 6 -9 11 -9 22 0 8 6 17 9 21 5 3 -3 1 -6 -5 -6 -7 0
-12 -5 -12 -11 0 -5 6 -7 13 -3 7 4 9 3 4 -2 -5 -5 -13 -10 -18 -10 -5 -1 -14
-2 -20 -3 -5 0 -7 -6 -4 -11 4 -6 11 -8 16 -4 6 3 5 -3 -2 -14 -7 -11 -19 -18
-26 -15 -7 3 -13 0 -13 -6 0 -6 5 -10 11 -8 6 1 14 -4 16 -11 3 -7 -1 -10 -10
-6 -8 3 -18 0 -23 -7 -4 -7 -3 -10 3 -6 6 4 13 0 17 -8 3 -8 0 -17 -6 -21 -6
-4 -8 -3 -5 3 3 5 0 10 -7 10 -8 0 -13 -7 -11 -16 1 -9 -1 -23 -6 -32 -10 -19
26 -63 43 -53 7 4 8 2 4 -4 -4 -6 -13 -9 -22 -5 -16 6 -16 -17 -1 -28 5 -3 2
-9 -6 -12 -11 -4 -14 2 -12 24 1 16 -2 29 -7 29 -6 0 -8 -7 -4 -15 3 -8 0 -15
-7 -15 -8 0 -6 -4 3 -10 8 -5 11 -10 6 -10 -5 0 -3 -7 4 -15 9 -10 9 -15 1
-15 -6 0 -11 -4 -11 -8 0 -5 6 -9 14 -9 8 0 13 8 11 19 -2 10 1 18 6 18 6 0 9
-6 6 -12 -2 -7 3 -22 12 -33 13 -15 13 -17 1 -8 -12 9 -21 7 -40 -9 -14 -11
-19 -17 -12 -13 12 6 69 -43 63 -55 -1 -2 3 -6 11 -8 9 -2 8 0 -2 7 -8 6 -10
11 -5 11 6 -1 19 -8 30 -17 16 -13 17 -15 2 -10 -10 4 -17 1 -17 -7 0 -9 10
-12 30 -10 30 4 40 -9 18 -22 -6 -4 -8 -3 -5 3 3 5 0 10 -8 10 -15 0 -22 -16
-7 -18 4 0 17 -2 30 -5 15 -3 21 0 17 7 -4 6 2 5 14 -3 12 -7 21 -17 21 -22 0
-4 -8 -2 -17 5 -16 12 -17 12 -6 -2 10 -12 10 -18 0 -29 -6 -8 -2 -6 11 4 13
12 22 15 22 7 0 -7 5 -9 12 -5 8 5 9 1 4 -12 -6 -16 -5 -17 6 -6 11 11 10 16
-4 26 -22 16 -23 23 -3 23 8 0 13 -2 10 -5 -2 -2 3 -11 11 -19 8 -8 12 -18 9
-23 -3 -5 1 -7 7 -5 40 10 57 18 52 26 -3 5 2 6 10 3 9 -3 14 -10 11 -14 -3
-5 -1 -12 5 -15 6 -4 9 -1 8 5 -2 6 8 19 22 28 13 9 21 11 16 4 -12 -20 4 -14
22 8 15 19 19 19 37 7 18 -14 18 -15 -6 -12 -19 2 -25 -2 -26 -17 -2 -19 -1
-19 11 -3 7 10 18 15 24 11 17 -10 25 13 10 32 -11 15 -11 16 3 4 13 -10 18
-10 28 1 6 8 10 16 8 18 -1 3 5 -3 15 -13 22 -25 31 -23 17 5 -9 18 -9 20 2
10 16 -15 33 -17 24 -3 -3 6 -1 10 4 10 6 0 11 -4 11 -10 0 -5 5 -10 10 -10 6
0 10 7 10 15 0 13 3 13 25 -1 15 -9 25 -13 24 -8 -4 21 2 26 19 13 9 -7 14 -9
9 -4 -4 4 0 17 10 27 12 13 13 18 3 18 -7 0 -10 3 -7 6 4 4 14 1 22 -6 13 -11
13 -15 3 -22 -10 -7 -10 -9 2 -5 8 2 14 11 13 18 -2 10 6 14 25 14 38 -2 72
-14 72 -27 0 -7 -5 -6 -14 1 -20 17 -54 22 -62 9 -4 -6 -2 -8 4 -4 6 3 15 -2
21 -11 7 -12 11 -13 11 -5 0 15 24 11 26 -4 2 -19 16 -44 26 -44 5 0 6 6 2 13
-4 6 2 4 13 -6 11 -9 22 -15 24 -12 3 2 5 -5 5 -16 0 -19 -1 -19 -17 2 -17 22
-17 22 -17 -27 1 -27 6 -56 12 -64 6 -8 1 -6 -12 4 -19 17 -22 17 -22 3 0 -10
4 -17 8 -17 5 0 9 -7 9 -15 0 -8 -5 -15 -12 -15 -6 0 -11 -9 -11 -19 0 -13 6
-18 19 -15 18 3 18 2 3 -15 -19 -21 -21 -35 -3 -25 9 6 8 3 -1 -8 -8 -9 -19
-15 -26 -12 -7 3 -12 -4 -12 -15 0 -16 3 -18 15 -8 12 10 14 9 8 -6 -4 -10 -7
-23 -7 -28 0 -4 -6 -7 -12 -5 -7 1 -10 1 -5 -1 4 -3 7 -9 7 -14 0 -6 -6 -7
-12 -3 -7 4 -10 4 -6 -1 4 -4 2 -15 -5 -24 -10 -14 -10 -14 4 -4 9 7 19 9 23
5 4 -4 6 -1 4 7 -2 7 3 15 10 17 7 1 8 0 3 -2 -5 -3 -7 -17 -5 -32 3 -20 2
-23 -5 -12 -9 13 -12 13 -23 1 -7 -8 -8 -11 -2 -8 7 4 14 -3 17 -15 5 -19 8
-20 24 -7 17 13 17 13 0 -7 -9 -11 -14 -25 -10 -29 5 -5 0 -3 -9 4 -10 7 -16
17 -13 21 3 5 2 11 -3 14 -15 9 -9 -27 7 -45 16 -20 24 -52 10 -43 -5 3 -9 1
-9 -4 0 -5 10 -14 23 -21 22 -11 22 -11 -3 -5 -22 6 -23 5 -12 -9 11 -13 10
-17 -5 -26 -14 -8 -15 -11 -3 -12 8 -1 19 -1 23 0 5 1 6 -3 2 -8 -3 -6 -12 -8
-19 -5 -7 3 -19 -3 -27 -13 -13 -16 -12 -17 4 -4 12 9 17 10 17 2 0 -7 5 -9
12 -5 7 4 8 3 4 -4 -4 -7 -14 -12 -22 -12 -8 0 -14 -5 -14 -11 0 -6 9 -8 23
-4 16 5 18 4 8 -3 -8 -6 -11 -17 -8 -25 4 -10 -1 -17 -11 -20 -12 -3 -10 -5 6
-6 13 0 21 -5 18 -10 -3 -5 1 -14 9 -21 11 -9 12 -16 5 -25 -8 -9 -7 -15 2
-18 10 -4 10 -6 1 -6 -18 -1 -16 -21 1 -21 8 0 18 -4 21 -10 10 -16 -27 1 -55
24 -19 16 -21 17 -10 2 8 -10 15 -24 16 -31 1 -7 7 -21 13 -32 11 -16 11 -16
6 5 -4 12 -3 22 2 22 15 0 13 -44 -3 -62 -15 -15 -13 -16 22 -13 21 2 33 0 28
-3 -5 -4 -10 -13 -12 -20 -2 -10 4 -11 19 -7 15 5 19 4 14 -5 -4 -7 -18 -9
-34 -6 l-26 6 28 -15 c31 -18 39 -42 8 -25 -11 5 -23 10 -28 10 -4 -1 4 -7 19
-16 19 -10 26 -20 22 -32 -5 -14 -4 -14 4 -2 6 8 9 17 7 20 -2 3 7 6 20 6 15
0 21 -4 18 -14 -4 -10 -8 -11 -13 -2 -6 9 -9 9 -16 -1 -4 -7 -3 -14 4 -17 6
-2 9 -9 6 -17 -3 -7 -1 -16 4 -19 5 -3 9 2 8 11 0 9 6 18 14 20 12 4 12 3 1
-5 -16 -11 -4 -21 22 -17 9 2 15 0 12 -5 -3 -5 2 -15 10 -23 8 -9 15 -19 15
-24 -1 -4 -11 5 -24 21 -17 20 -26 25 -31 16 -5 -8 -4 -11 3 -6 6 3 13 -3 17
-14 3 -11 11 -20 16 -20 6 0 8 -4 5 -8 -3 -5 1 -9 9 -9 8 0 12 4 9 8 -2 4 0
10 6 14 5 3 10 -1 10 -9 0 -9 5 -16 11 -16 5 0 7 5 4 10 -10 16 1 11 16 -7 8
-10 9 -14 2 -10 -6 4 -15 2 -19 -5 -4 -7 -4 -10 1 -6 4 4 15 2 23 -5 13 -10
14 -9 7 2 -6 11 -4 13 9 8 10 -4 20 -7 22 -7 2 0 4 -8 5 -17 0 -12 2 -13 6 -5
3 7 -1 20 -9 29 -12 15 -11 15 10 4 12 -7 20 -16 17 -21 -3 -5 -1 -12 5 -15 6
-4 9 -1 8 6 -2 8 7 14 22 14 14 0 31 5 39 9 12 8 11 12 -5 24 -18 13 -18 14 5
7 16 -5 21 -4 17 4 -9 14 26 2 37 -13 5 -6 6 3 3 22 -5 27 -3 30 8 20 8 -7 12
-16 9 -20 -2 -4 3 -5 11 -2 9 3 14 11 13 16 -1 6 4 13 11 15 8 3 10 -2 6 -14
-4 -13 -3 -14 4 -5 5 8 12 13 16 12 4 -1 10 0 14 3 4 2 0 2 -8 0 -10 -3 -8 2
5 15 20 20 41 20 29 0 -4 -7 -2 -8 4 -4 9 5 9 13 0 29 -10 20 -10 21 5 8 20
-16 23 -2 4 19 -6 8 1 4 17 -10 l30 -25 -18 30 c-11 17 -15 27 -11 22 5 -4 17
1 28 10 11 10 17 13 14 7 -4 -7 0 -14 8 -18 8 -3 14 0 12 7 -1 7 6 11 15 11
10 -1 15 2 13 7 -3 4 7 15 22 23 15 8 24 15 19 16 -5 0 -24 -9 -42 -21 -19
-11 -34 -17 -34 -12 0 4 13 14 30 21 16 8 30 20 30 29 0 12 2 12 16 -1 20 -20
30 -21 14 -1 -7 8 -9 15 -4 15 5 0 3 4 -4 9 -11 7 -10 9 3 14 9 4 14 3 11 -1
-2 -4 7 -12 20 -19 l24 -11 -21 29 c-11 16 -16 29 -11 29 6 0 13 -7 16 -16 3
-8 11 -12 16 -9 8 5 8 11 0 20 -9 11 -7 13 14 9 14 -2 26 0 26 4 0 5 10 14 23
19 21 10 21 11 -5 9 -14 0 -24 -4 -22 -8 2 -4 -1 -10 -7 -13 -7 -5 -10 0 -7
11 2 11 9 19 16 19 15 0 33 26 26 37 -3 4 5 8 17 8 22 0 22 0 3 -15 -10 -8
-14 -15 -8 -15 6 0 19 10 30 22 10 12 13 18 7 14 -7 -4 -13 -2 -13 4 0 6 -5 8
-10 5 -6 -3 -10 -2 -10 3 0 6 7 13 16 16 8 3 12 11 8 17 -4 7 -3 9 4 5 6 -3
13 -2 17 4 3 5 12 10 18 10 7 0 1 -10 -13 -23 -14 -12 -24 -21 -22 -20 3 1 13
-2 23 -7 12 -7 20 -7 24 0 4 6 3 10 -2 9 -4 -1 -14 -1 -22 0 -12 1 -5 8 48 48
3 2 -6 15 -20 30 l-24 27 33 -23 c18 -13 32 -19 31 -14 -1 4 0 11 1 16 1 4 3
12 4 19 0 6 7 13 15 16 9 3 11 0 6 -8 -6 -9 -4 -11 4 -5 9 5 10 10 2 18 -17
17 -13 26 9 22 11 -2 20 0 20 5 0 10 -29 22 -40 15 -5 -3 -11 -1 -14 4 -3 5 8
8 25 7 16 -1 33 2 36 7 3 6 2 7 -4 4 -5 -3 -10 0 -10 7 0 8 6 12 13 9 6 -2 15
1 20 8 4 7 3 10 -4 5 -6 -3 -14 -1 -18 6 -4 7 -4 10 1 6 4 -4 15 2 25 14 11
15 21 18 31 12 21 -13 39 -14 39 -2 0 6 -8 7 -17 4 -15 -5 -15 -4 1 9 22 17
40 20 31 5 -3 -5 1 -10 9 -10 9 0 16 -5 16 -11 0 -5 5 -7 11 -4 6 5 4 12 -8
21 -12 9 -13 13 -5 14 8 0 10 5 6 13 -4 7 -3 9 2 4 5 -5 9 -14 9 -20 0 -7 9
-12 19 -12 11 0 21 -6 24 -13 2 -6 8 -10 13 -7 5 4 6 -2 2 -11 -5 -13 -3 -15
8 -9 8 4 11 5 7 0 -4 -4 -2 -15 5 -23 9 -13 9 -14 0 -8 -16 9 -16 1 -3 -25 6
-10 18 -19 28 -19 15 1 15 2 -2 15 -11 8 -15 15 -9 15 6 0 16 -7 23 -16 11
-13 10 -16 -8 -21 -12 -3 -22 -10 -22 -15 0 -5 10 -7 23 -3 18 5 19 4 5 -4
-10 -7 -14 -19 -11 -31 5 -19 7 -19 23 -5 14 13 17 13 17 0 0 -8 -4 -12 -9 -9
-4 3 -8 0 -8 -5 0 -6 5 -11 10 -11 6 0 10 -5 10 -11 0 -5 -4 -7 -10 -4 -5 3
-10 2 -10 -3 0 -6 7 -13 16 -16 8 -3 13 -2 10 2 -2 4 0 14 5 22 8 12 9 11 7
-5 -2 -11 2 -19 9 -18 6 1 10 -4 9 -13 -1 -8 -6 -13 -12 -12 -5 2 -8 7 -6 11
1 4 -7 3 -18 -3 -24 -13 -27 -22 -3 -13 10 4 14 2 9 -5 -4 -7 4 -9 26 -7 18 2
27 1 21 -2 -7 -2 -13 -14 -12 -26 0 -21 1 -21 9 -2 8 18 9 17 9 -7 1 -16 6
-28 12 -28 5 0 7 -4 4 -10 -4 -6 1 -7 12 -3 16 6 17 5 3 -12 -9 -11 -10 -16
-2 -11 7 4 12 2 12 -4 0 -6 5 -8 10 -5 6 3 10 1 10 -5 0 -6 4 -9 8 -6 4 2 14
0 22 -6 12 -8 12 -9 -2 -4 -10 3 -18 1 -18 -4 0 -6 8 -10 18 -10 14 0 15 -2 2
-10 -12 -8 -9 -10 10 -8 21 3 25 -1 23 -22 -1 -14 1 -19 3 -12 3 6 10 9 16 6
6 -4 14 0 19 7 7 11 9 11 9 1 0 -8 5 -10 13 -6 6 4 9 4 5 -1 -4 -4 0 -14 8
-22 8 -8 12 -18 10 -22 -3 -4 4 -8 15 -8 16 -2 19 3 15 20 -3 12 -3 16 0 10 9
-20 24 -15 18 5 -5 14 -4 14 4 2 8 -10 8 -18 0 -27 -8 -10 -7 -12 6 -7 9 3 16
14 16 23 1 14 2 14 11 -1 5 -9 16 -15 24 -12 8 4 12 11 9 16 -4 6 -10 5 -16
-3 -8 -11 -9 -11 -6 -1 2 8 7 13 11 13 4 -1 14 -1 23 -1 8 0 13 -4 10 -8 -3
-5 1 -9 9 -9 10 0 12 4 5 12 -7 8 -7 20 0 36 10 22 10 22 6 2 -3 -16 0 -20 12
-16 11 5 13 3 7 -7 -5 -9 -4 -11 3 -6 9 5 9 13 2 26 -14 25 -13 30 5 24 8 -4
13 -10 10 -14 -3 -5 0 -12 7 -16 7 -4 10 -4 6 1 -4 4 -3 16 3 27 9 16 13 17
27 6 15 -12 16 -11 3 4 -11 15 -11 18 0 18 9 0 10 3 4 8 -16 11 -15 41 1 35 8
-3 12 -8 10 -12 -3 -4 0 -13 6 -21 8 -12 9 -12 4 2 -3 10 -1 20 3 22 5 3 7 20
5 38 -3 23 -1 29 5 18 6 -8 7 -18 4 -24 -3 -5 -1 -6 6 -2 6 4 9 12 5 17 -3 6
2 9 11 7 11 -2 19 4 20 15 2 9 -1 17 -6 17 -4 0 -13 10 -19 23 -9 19 -9 20 2
6 20 -23 48 -32 41 -12 -4 10 -2 14 5 9 6 -3 13 -2 16 3 7 11 -13 9 -33 -3
-10 -6 -12 -5 -7 2 4 7 1 12 -6 12 -10 0 -10 2 1 9 7 5 27 5 43 1 17 -5 26 -5
23 1 -4 5 -13 9 -21 9 -8 0 -14 5 -14 11 0 5 6 7 13 3 9 -6 9 -4 -1 8 -8 10
-9 19 -3 22 5 4 14 -2 20 -11 11 -19 11 -19 15 27 0 8 6 14 13 13 18 -4 7 37
-14 53 -17 13 -17 14 2 7 11 -3 23 -11 27 -17 5 -7 8 -7 8 2 0 7 5 10 10 7 6
-3 10 -1 10 5 0 7 -7 10 -15 7 -19 -8 -30 12 -15 26 8 7 10 8 7 1 -3 -6 0 -11
7 -11 8 0 11 8 8 19 -2 10 -9 15 -16 11 -6 -3 -2 3 8 15 11 12 25 22 32 22 7
0 15 6 18 13 3 7 5 7 3 -3 -1 -8 3 -16 8 -17 6 -2 10 6 10 16 0 11 4 23 8 27
4 5 5 1 2 -9 -5 -12 0 -19 19 -27 18 -7 24 -14 20 -27 -5 -17 -5 -17 6 0 6 9
16 15 21 12 5 -4 6 -11 3 -17 -4 -7 -2 -8 4 -4 9 5 8 16 -4 39 -11 23 -11 27
-1 15 8 -10 17 -15 20 -12 3 4 6 -2 6 -12 1 -41 5 -53 17 -58 8 -3 11 1 8 12
-3 9 2 5 11 -11 9 -15 13 -32 10 -38 -4 -5 3 -19 16 -30 13 -11 17 -19 9 -19
-7 0 -11 -3 -7 -6 3 -3 11 -3 17 1 8 5 4 15 -11 31 -12 13 -18 24 -12 24 6 0
14 -7 17 -16 3 -8 11 -12 17 -8 7 4 9 3 5 -4 -7 -12 43 -64 56 -56 4 3 8 0 8
-6 0 -7 -6 -10 -14 -7 -28 11 2 -50 34 -68 8 -4 2 7 -15 25 -24 26 -25 30 -7
19 12 -8 22 -17 22 -22 0 -4 5 -5 10 -2 6 4 10 3 9 -2 -4 -21 2 -32 20 -38 23
-7 34 -32 19 -41 -7 -4 -8 -3 -4 4 7 12 -40 49 -50 39 -3 -3 4 -8 16 -12 15
-5 20 -13 17 -25 -4 -15 0 -17 21 -14 23 5 24 3 11 -12 -13 -16 -12 -17 6 -10
11 4 24 8 29 9 12 3 16 -32 5 -39 -5 -3 -8 -2 -7 3 2 4 -1 9 -6 11 -6 1 -11
-4 -12 -12 -1 -9 5 -13 17 -10 62 14 61 14 50 0 -8 -10 -7 -17 6 -27 15 -12
16 -12 10 6 -7 19 -6 19 7 2 8 -11 12 -25 9 -33 -3 -8 -1 -14 5 -14 6 0 18 -3
28 -7 13 -5 15 -3 9 7 -6 9 -4 11 4 5 9 -5 10 -10 2 -18 -15 -15 -14 -30 2
-20 20 12 37 12 34 0 -1 -7 3 -11 8 -10 6 1 12 -8 12 -19 2 -19 1 -19 -10 -4
-12 16 -13 16 -13 -3 0 -11 2 -18 5 -16 2 3 9 -2 15 -10 9 -13 11 -11 13 11 1
31 19 53 19 24 0 -11 -4 -20 -9 -20 -5 0 -4 -6 2 -13 6 -8 7 -18 3 -22 -4 -5
-1 -5 6 -1 7 4 9 12 6 18 -4 6 7 3 25 -8 17 -10 31 -23 31 -28 0 -5 -8 -2 -19
8 -16 14 -20 15 -30 2 -11 -13 -9 -15 8 -11 12 2 25 -3 31 -13 5 -10 10 -12
10 -4 0 6 8 12 18 11 11 0 13 -2 4 -6 -18 -7 31 -32 55 -28 10 1 24 -2 31 -8
20 -16 53 -19 67 -7 9 7 16 6 25 -5 14 -16 34 -10 24 7 -4 7 -2 8 5 4 9 -6 9
-11 0 -22 -6 -7 -15 -11 -20 -8 -5 3 -6 -3 -2 -12 4 -11 8 -13 11 -6 2 7 8 12
13 12 6 0 7 -6 3 -12 -6 -10 -5 -10 8 -1 8 7 19 9 23 5 5 -4 5 -1 1 6 -4 7
-13 9 -19 6 -7 -4 -8 -3 -4 1 11 12 37 15 37 4 0 -10 35 -7 46 4 4 3 -3 5 -14
2 -15 -2 -19 1 -16 10 7 18 50 2 46 -17 -2 -7 0 -9 4 -5 11 11 14 38 3 31 -5
-3 -9 -1 -9 4 0 5 9 12 21 15 12 3 19 12 17 23 -2 9 4 19 12 21 12 4 12 3 1
-5 -8 -6 -9 -12 -3 -16 5 -3 13 1 16 10 3 8 10 13 15 9 5 -3 12 -1 16 4 3 6
-3 8 -15 6 -11 -2 -20 0 -20 6 0 9 21 13 50 9 10 -1 9 3 -5 14 -11 8 -15 16
-10 16 6 0 3 5 -5 10 -9 6 -10 10 -3 10 7 0 17 -8 22 -18 9 -15 10 -15 11 0 0
9 3 18 8 21 4 2 2 3 -5 1 -6 -1 -19 4 -30 12 -15 11 -15 13 -1 8 16 -5 43 26
33 40 -3 3 -2 4 2 1 12 -9 12 -35 0 -35 -5 0 -8 -3 -4 -6 3 -3 14 -1 24 5 11
6 13 11 5 11 -7 0 -10 5 -7 10 4 6 11 7 17 4 6 -4 8 -2 4 4 -3 5 0 13 6 15 10
4 10 6 1 6 -7 1 -18 11 -24 23 -11 21 -11 22 5 9 14 -12 16 -12 10 4 -6 14 -4
16 7 10 8 -4 11 -4 6 0 -4 5 0 19 9 33 9 13 11 21 5 18 -6 -4 -11 -2 -11 4 0
6 -6 8 -12 4 -10 -5 -10 -4 -1 6 6 7 9 18 7 25 -3 6 2 18 11 25 8 7 15 17 15
23 0 5 -10 2 -22 -9 -20 -17 -19 -16 3 14 20 28 21 34 9 42 -9 6 -10 10 -3 10
6 0 15 -4 18 -10 3 -5 11 -10 18 -10 6 0 2 7 -9 15 -10 8 -14 15 -9 15 12 0
16 60 4 60 -4 0 -6 -9 -4 -20 2 -11 0 -18 -5 -15 -6 3 -7 -1 -4 -9 4 -10 1
-16 -7 -16 -7 0 -9 3 -6 7 4 3 2 12 -5 20 -6 7 -8 16 -4 20 3 3 6 1 6 -6 0 -7
5 -9 10 -6 8 5 7 11 -1 21 -6 8 -9 17 -5 21 3 3 6 1 6 -6 0 -7 4 -10 9 -7 5 3
7 16 3 28 -4 16 -2 19 9 13 8 -5 11 -5 7 0 -4 4 0 14 10 22 16 12 16 13 -1 7
-13 -5 -16 -2 -11 12 5 15 4 16 -4 4 -6 -8 -8 -18 -6 -22 3 -4 1 -8 -4 -8 -6
0 -8 18 -4 43 5 37 4 41 -10 29 -13 -10 -18 -10 -24 -1 -4 7 -3 9 4 5 12 -7
27 11 27 34 0 8 4 21 8 28 5 6 5 12 1 12 -4 0 0 6 10 13 16 12 16 13 -2 13
-13 0 -19 -6 -17 -16 2 -9 -3 -17 -10 -17 -8 0 -11 5 -7 11 10 17 11 35 1 42
-5 3 -2 18 6 35 16 30 12 55 -7 43 -7 -4 -6 -9 2 -14 7 -4 8 -10 3 -13 -5 -3
-14 3 -21 14 -7 10 -9 18 -5 17 5 -2 9 1 10 6 0 5 9 13 18 18 13 8 14 13 4 24
-8 10 -8 14 0 14 6 0 11 4 11 10 0 5 -6 9 -12 7 -7 -1 -12 6 -10 15 1 9 -1 19
-6 22 -10 6 -9 -24 2 -42 4 -6 2 -12 -3 -12 -12 0 -12 2 -15 41 0 14 -6 32
-12 40 -6 8 -14 21 -18 29 -4 8 0 6 9 -5 9 -11 25 -21 36 -21 15 -1 17 2 8 12
-14 17 -23 18 -13 2 4 -7 3 -8 -4 -4 -6 4 -9 13 -6 21 4 8 9 13 13 10 4 -2 8
2 8 10 0 13 -3 13 -18 -1 -13 -12 -19 -12 -25 -3 -4 7 -3 10 4 5 7 -4 10 1 9
14 -1 11 -6 20 -12 20 -5 0 -4 4 3 9 8 4 14 12 14 17 1 16 17 49 17 37 1 -7 5
-13 11 -13 5 0 7 7 4 15 -4 8 -1 15 6 15 6 0 9 -4 5 -9 -3 -5 -1 -12 5 -16 6
-4 7 -12 3 -18 -4 -7 0 -6 10 2 9 7 17 19 17 25 0 6 -5 4 -10 -4 -7 -12 -9
-10 -7 7 1 18 4 20 19 12 11 -6 16 -15 11 -22 -5 -8 -2 -8 9 1 13 11 19 10 34
-5 17 -17 17 -17 11 0 -3 9 -2 17 4 17 6 0 7 5 3 11 -3 6 5 3 20 -6 14 -10 26
-19 26 -21 0 -8 -25 1 -32 11 -4 5 -6 0 -5 -12 1 -17 4 -19 14 -11 9 8 13 7
13 -2 0 -9 4 -9 17 1 15 12 16 12 10 -4 -4 -10 -3 -16 2 -12 5 3 11 0 14 -7 2
-7 3 -5 2 5 -2 9 1 17 6 17 5 0 9 -4 9 -10 0 -5 5 -10 11 -10 5 0 7 6 3 13 -5
9 -4 9 6 0 7 -6 19 -9 26 -6 8 3 14 -1 14 -11 0 -10 5 -13 18 -9 15 6 15 5 3
-10 -8 -10 -11 -20 -7 -24 3 -3 6 -1 6 5 0 19 20 14 20 -5 1 -12 5 -7 13 11
11 26 14 27 26 12 12 -14 12 -16 -3 -10 -9 3 -16 2 -16 -3 0 -5 6 -10 13 -11
6 0 22 -3 34 -6 13 -2 25 0 28 5 4 5 11 7 16 4 5 -4 9 -1 9 6 0 7 2 10 5 7 3
-3 1 -18 -5 -34 l-11 -28 24 24 c13 14 22 28 20 32 -7 14 4 8 18 -9 8 -9 9
-14 4 -11 -6 4 -17 3 -24 -1 -9 -6 -1 -10 22 -13 20 -2 34 -1 32 2 -2 3 6 12
18 20 21 12 21 12 7 -5 -13 -17 -13 -18 1 -13 9 4 23 1 30 -5 11 -10 11 -9 0
6 -15 20 -2 23 19 4 7 -6 5 2 -5 18 -15 25 -16 28 -2 16 14 -11 18 -11 23 3 3
9 10 14 14 11 5 -3 11 -1 15 5 4 6 10 8 15 5 5 -3 19 8 31 25 13 16 28 30 33
30 6 0 4 -5 -4 -10 -8 -5 -10 -10 -5 -10 6 0 18 9 27 20 17 19 16 19 -13 16
-28 -3 -29 -3 -12 14 10 9 20 13 21 9 8 -20 22 -7 22 21 0 17 4 30 10 30 5 0
6 7 3 17 -4 10 -2 14 5 9 6 -3 14 -1 18 5 4 7 3 9 -3 6 -6 -4 -16 6 -22 21
l-13 27 23 -20 c20 -17 21 -17 9 -2 -12 16 -12 20 1 29 12 8 12 9 -1 5 -8 -2
-24 7 -34 21 -11 14 -14 22 -8 18 7 -4 12 -3 12 3 0 5 -5 11 -12 13 -8 3 -6 7
4 10 12 5 15 1 13 -17 -1 -15 2 -22 8 -18 6 3 7 1 3 -5 -5 -8 -2 -10 8 -6 14
5 14 8 1 21 -19 19 -19 27 0 19 23 -8 18 0 -11 19 -15 9 -24 13 -21 8 4 -5 0
-10 -8 -10 -13 0 -13 2 0 17 13 14 13 18 -1 32 -12 12 -13 17 -3 23 8 6 10 4
4 -5 -5 -9 -4 -11 4 -6 9 6 9 11 0 22 -12 15 -23 19 -15 6 3 -5 -1 -9 -9 -9
-8 0 -13 3 -10 5 3 3 -1 12 -8 21 -11 14 -10 14 6 2 12 -9 17 -10 17 -2 0 7 4
10 9 6 5 -3 13 -1 16 5 4 6 3 10 -2 9 -20 -3 -25 2 -13 16 10 12 8 14 -9 10
-24 -4 -27 5 -8 24 10 11 8 11 -10 2 -20 -10 -22 -9 -16 6 3 10 10 23 15 30 7
8 3 10 -11 6 -12 -3 -18 -9 -15 -14 3 -5 0 -9 -5 -9 -14 0 -13 11 3 32 7 10
17 14 22 10 4 -4 3 0 -4 9 -6 9 -8 20 -4 24 4 5 1 5 -6 1 -7 -4 -10 -11 -7
-16 3 -4 -3 -14 -13 -21 -14 -11 -15 -11 -5 1 9 9 9 19 2 33 -6 11 -7 17 -2
14 4 -3 8 8 9 24 1 16 -3 29 -7 29 -5 0 -8 -3 -8 -7 3 -17 -1 -33 -9 -33 -4 0
-8 15 -8 33 -1 17 1 26 3 19 3 -6 9 -10 13 -7 5 3 6 13 3 22 -4 11 -3 14 5 9
7 -4 12 -2 12 4 0 6 5 8 13 4 9 -6 9 -5 0 8 -7 8 -9 19 -5 23 4 5 1 5 -6 1 -7
-4 -10 -12 -7 -17 4 -5 2 -9 -3 -9 -6 0 -13 7 -16 16 -3 8 -2 12 3 9 6 -3 14
2 19 11 9 15 10 15 16 -4 4 -12 12 -22 17 -22 6 0 7 6 2 13 -12 19 -12 36 -1
44 6 3 9 2 5 -3 -3 -5 1 -20 9 -34 l15 -25 -5 27 c-4 15 -2 30 4 33 6 3 7 -1
4 -9 -3 -9 -1 -16 5 -16 6 0 11 8 12 18 0 11 2 12 6 4 3 -7 -1 -19 -7 -28 -11
-12 -10 -13 6 -7 17 6 18 5 4 -13 -14 -17 -14 -18 2 -6 9 8 14 20 11 28 -3 9
0 14 8 12 8 -2 13 3 11 10 -1 8 2 11 8 7 6 -4 7 -12 1 -24 -8 -13 -5 -17 12
-18 15 -2 18 0 8 6 -8 5 -9 11 -3 15 12 7 25 -22 15 -36 -4 -7 -1 -8 6 -4 7 5
10 14 7 22 -3 7 0 16 6 20 7 4 8 3 4 -4 -4 -7 -3 -12 3 -12 6 0 8 -8 5 -17 -5
-17 -5 -17 6 0 6 9 18 17 27 17 15 0 15 -1 -1 -13 -16 -12 -16 -13 3 -13 11 0
17 4 15 8 -3 4 0 8 5 8 6 0 11 -4 11 -10 0 -5 6 -9 13 -7 6 1 11 -5 9 -13 -3
-12 -1 -13 9 -2 16 15 33 16 23 0 -4 -7 -3 -8 5 -4 16 10 3 29 -16 22 -8 -3
-11 -1 -8 5 4 5 16 7 27 3 16 -5 19 -3 12 7 -6 11 -5 12 7 2 12 -10 18 -10 27
-1 9 9 11 6 7 -10 -2 -15 0 -19 11 -15 7 3 11 9 8 14 -3 5 3 6 12 2 15 -6 15
-8 -6 -25 -12 -10 -17 -18 -12 -18 6 0 14 5 18 11 3 6 17 9 30 6 14 -2 27 0
31 6 4 6 1 7 -7 2 -8 -5 -11 -4 -7 3 8 11 25 11 43 -1 6 -3 14 -3 18 0 11 11
46 14 46 4 0 -6 -9 -8 -19 -6 -14 3 -18 -1 -14 -12 5 -12 7 -12 14 -1 8 12 13
4 10 -15 -1 -5 3 -6 9 -2 6 3 8 11 5 16 -4 5 1 9 10 9 9 0 14 -4 10 -9 -3 -5
0 -13 6 -17 7 -4 9 -3 6 3 -4 6 0 18 7 28 10 14 15 15 21 5 5 -8 4 -11 -2 -7
-5 3 -10 0 -10 -7 0 -7 6 -13 13 -13 7 0 10 5 7 10 -4 6 5 8 21 5 14 -3 29 -1
33 5 4 6 1 7 -7 2 -8 -5 -11 -4 -6 3 4 6 14 8 23 5 10 -4 14 -2 9 5 -3 6 -3
13 2 16 13 8 11 -28 -2 -37 -7 -6 -4 -7 7 -3 9 3 17 1 17 -5 0 -6 7 -3 16 5 8
9 20 16 25 16 6 0 8 4 4 9 -11 19 17 23 33 5 16 -17 16 -17 -1 -5 -9 8 -20 11
-24 7 -3 -3 -1 -6 6 -6 7 0 10 -4 7 -9 -4 -5 2 -8 11 -7 10 2 18 7 18 12 0 5
4 15 8 22 9 14 27 7 27 -11 0 -7 -4 -6 -10 3 -8 12 -9 10 -7 -7 2 -12 7 -26
12 -30 4 -5 5 -3 2 3 -4 7 0 17 8 24 12 10 13 16 4 26 -7 9 -8 14 -1 14 13 0
24 -29 15 -42 -4 -7 -1 -8 6 -3 7 4 11 18 8 31 -3 19 -2 22 9 13 8 -6 11 -16
7 -22 -3 -5 -1 -7 5 -4 5 4 8 17 5 30 -4 19 -2 18 12 -5 19 -35 28 -36 15 -3
-7 19 -6 23 6 18 10 -4 13 0 8 13 -5 15 -3 14 10 -3 10 -13 22 -23 28 -23 7 0
4 6 -7 13 -14 11 -15 16 -5 22 9 5 11 4 6 -3 -4 -7 -3 -12 2 -12 16 0 22 13
11 26 -7 8 -6 14 2 20 7 4 9 3 5 -4 -3 -6 2 -16 13 -22 14 -7 22 -7 26 1 4 6
13 8 21 5 7 -3 16 -1 19 4 3 4 -6 7 -20 5 -14 -1 -28 2 -32 8 -3 6 -1 7 5 3 7
-4 12 -2 12 4 0 6 4 9 9 6 5 -3 11 4 14 15 3 12 10 18 16 15 5 -4 12 -2 16 4
6 9 -8 14 -28 11 -5 -1 -6 3 -2 9 3 6 11 8 16 4 15 -9 38 15 32 34 -4 15 -3
15 6 2 9 -13 11 -13 12 0 1 8 1 18 0 23 0 4 4 7 10 7 5 0 8 4 4 9 -3 5 -1 12
5 16 6 4 7 11 4 17 -4 7 -2 8 4 4 7 -4 20 -2 29 4 15 9 14 10 -6 4 -16 -4 -21
-3 -17 5 4 6 1 9 -6 8 -7 -2 -10 -2 -5 0 4 3 5 9 2 13 -3 5 0 12 6 16 8 4 9 3
5 -4 -4 -7 -2 -12 4 -12 7 0 10 6 7 13 -2 6 -12 10 -22 9 -16 -3 -17 -1 -6 12
8 9 10 16 6 16 -5 0 0 9 10 20 10 11 14 20 9 20 -5 0 -16 -11 -24 -24 -14 -22
-16 -23 -30 -8 -13 14 -12 15 2 10 10 -4 18 -1 20 10 7 24 -1 42 -18 42 -8 0
-14 5 -14 11 0 5 4 8 9 5 5 -3 14 1 21 9 12 14 2 15 -36 3 -7 -1 -12 2 -13 7
-1 6 3 10 8 10 16 0 22 12 6 13 -8 1 -22 3 -30 4 -8 1 -12 5 -9 10 3 4 0 8 -6
8 -7 0 -9 8 -5 20 5 15 2 20 -12 20 -15 0 -16 2 -3 10 13 9 13 10 0 11 -8 1
-18 1 -21 1 -3 -1 -6 5 -6 13 0 8 4 12 8 9 4 -2 11 0 14 6 4 6 1 9 -6 8 -7 -2
-13 2 -14 7 -1 16 -24 51 -25 38 0 -7 -8 -13 -17 -13 -14 0 -15 2 -5 9 11 7
11 9 -2 14 -8 3 -17 1 -20 -6 -3 -9 -5 -9 -5 0 -1 6 3 14 9 18 14 8 0 35 -19
36 -10 0 -11 2 -4 6 10 3 8 11 -5 28 l-17 22 -19 -21 -18 -21 7 24 c6 18 4 22
-6 15 -12 -6 -12 -5 0 9 15 19 8 22 -20 7 -16 -9 -21 -7 -29 16 -9 23 -12 25
-28 13 -15 -13 -16 -12 -3 3 7 10 16 16 20 14 4 -3 7 4 7 15 0 19 -1 19 -13 3
-17 -23 -28 -11 -14 14 16 29 14 39 -3 16 -17 -23 -37 -25 -53 -4 -8 10 -8 21
-1 35 9 16 8 18 -3 8 -19 -19 -34 -16 -18 4 10 11 10 14 2 9 -7 -4 -13 -2 -13
3 0 6 -5 11 -11 11 -5 0 -7 -5 -3 -12 4 -7 3 -8 -5 -4 -6 4 -9 12 -6 17 4 5 1
9 -5 9 -6 0 -9 4 -5 9 3 6 -1 13 -8 18 -8 4 -17 15 -21 23 -3 8 -4 5 -2 -7 2
-13 1 -23 -4 -23 -10 0 -22 29 -15 40 3 4 -1 10 -9 13 -10 4 -12 0 -9 -14 3
-10 0 -19 -6 -19 -6 0 -10 5 -8 12 1 7 -4 13 -10 14 -7 1 -17 2 -23 3 -5 0
-10 8 -10 16 0 8 -5 15 -11 15 -5 0 -7 6 -3 13 6 9 4 9 -8 -1 -13 -10 -17 -10
-22 3 -3 9 -2 13 4 10 6 -3 10 -1 10 5 0 6 -8 10 -17 8 -11 -2 -17 -11 -15
-23 2 -16 1 -17 -7 -5 -7 10 -5 20 6 32 15 17 15 18 -3 19 -10 1 -23 1 -27 0
-5 -1 -5 4 0 11 11 18 10 51 -2 60 -6 5 -3 8 7 8 12 0 16 6 13 20 -2 11 0 18
5 15 9 -5 7 -23 -5 -60 -5 -15 -4 -16 3 -6 9 12 11 12 15 0 2 -8 2 -4 0 9 -2
13 2 22 9 22 8 0 9 3 3 8 -13 9 -16 64 -3 56 4 -3 6 -10 3 -15 -4 -5 -2 -9 3
-9 15 0 22 28 9 33 -7 3 2 4 18 4 21 -2 29 2 27 12 -2 11 0 12 11 3 8 -7 18
-8 22 -4 5 4 5 1 1 -6 -4 -7 -12 -9 -18 -6 -7 5 -8 2 -3 -6 6 -9 4 -11 -5 -5
-9 6 -11 4 -6 -4 10 -16 49 17 42 35 -3 8 1 11 9 7 8 -3 12 -10 8 -16 -3 -6
-1 -7 5 -3 6 4 9 13 5 21 -4 11 -1 13 13 8 17 -6 18 -5 4 13 -14 19 -14 19 8
0 23 -20 52 -30 51 -18 -3 21 2 32 13 26 7 -5 9 -2 5 9 -4 10 3 21 20 32 14
10 23 13 19 7 -9 -15 18 -21 35 -8 9 6 15 21 14 34 -2 21 -1 21 22 7 24 -16
44 -13 42 8 0 9 -2 9 -6 0 -2 -7 -9 -13 -15 -13 -6 0 -8 7 -5 14 4 11 1 13
-10 9 -12 -5 -12 -2 3 15 21 25 25 27 18 9 -5 -15 32 -21 41 -6 3 5 0 6 -8 3
-8 -3 -14 1 -14 10 0 8 4 13 9 10 7 -5 12 9 10 28 -1 3 6 12 16 20 15 12 16
11 3 -4 -7 -10 -10 -18 -5 -18 26 1 45 40 20 40 -8 0 -18 4 -21 10 -9 14 26 1
49 -19 19 -16 19 -15 1 12 -9 15 -22 27 -28 27 -6 0 -7 3 -4 7 4 3 17 -2 29
-13 21 -19 21 -19 11 0 -6 11 -8 29 -3 40 4 12 6 29 4 39 -1 9 2 15 7 11 5 -3
7 -10 4 -15 -4 -5 -1 -9 5 -9 6 0 9 12 7 28 -2 15 1 33 7 41 8 11 8 13 -1 8
-6 -4 -14 -3 -18 3 -3 5 -1 10 6 10 7 0 5 8 -6 20 -10 11 -23 20 -29 20 -6 0
-4 -5 4 -10 12 -7 10 -9 -7 -7 -14 1 -19 5 -13 12 23 28 -21 81 -57 68 -10 -3
-15 -3 -11 2 12 13 -11 34 -30 28 -14 -4 -15 -3 -2 5 8 6 18 8 23 5 5 -3 3 4
-4 14 -12 20 -35 26 -54 14 -6 -3 -2 2 9 12 20 19 20 19 1 15 -13 -2 -19 2
-17 10 1 8 -2 11 -7 8 -5 -4 -14 1 -19 10 -8 15 -10 15 -15 0 -4 -10 -3 -15 1
-12 4 2 9 -5 9 -17 2 -21 1 -21 -12 -4 -7 11 -11 26 -7 35 5 15 4 16 -13 2
-17 -14 -18 -13 -12 3 4 11 3 16 -3 12 -13 -8 -13 8 1 22 8 8 7 13 -2 18 -8 5
-10 4 -5 -4 4 -6 0 -14 -8 -17 -9 -3 -13 -11 -9 -18 4 -7 2 -7 -7 1 -9 9 -19
9 -34 2 -18 -9 -19 -8 -5 3 21 18 30 45 14 45 -8 0 -11 -7 -7 -15 3 -10 1 -13
-6 -8 -7 4 -12 2 -12 -6 0 -8 -5 -6 -11 5 -6 9 -14 15 -20 12 -13 -9 -11 9 4
24 10 11 8 11 -11 1 -16 -8 -22 -17 -18 -28 4 -9 -3 -6 -14 8 -11 14 -20 21
-20 16 0 -5 -7 -3 -15 4 -9 7 -14 19 -11 26 3 8 2 13 -2 13 -18 -3 -31 2 -35
14 -2 6 -3 4 -2 -5 2 -10 -1 -18 -7 -18 -5 0 -6 -5 -2 -12 4 -7 3 -8 -4 -4 -6
4 -9 13 -6 21 4 10 0 13 -16 10 -18 -3 -20 -2 -10 10 7 8 7 15 1 19 -5 3 -12
0 -14 -6 -4 -9 -6 -10 -6 -1 -1 6 4 15 9 18 15 10 12 23 -7 28 -10 3 -1 4 19
2 28 -3 36 0 31 11 -3 8 -9 14 -15 14 -5 0 -6 -4 -3 -10 3 -5 0 -7 -8 -4 -7 2
-14 11 -14 18 0 8 6 12 14 9 17 -7 17 13 1 21 -7 3 -4 4 7 3 11 -1 20 4 20 12
0 8 9 15 19 17 10 1 23 9 28 16 7 10 8 8 4 -4 -7 -22 1 -23 20 -4 17 17 19 30
2 20 -6 -4 -8 -3 -5 4 4 5 18 9 31 8 19 -2 26 3 30 20 4 13 11 24 17 24 8 0 8
-4 2 -12 -12 -15 -13 -49 -2 -42 5 2 5 12 2 21 -5 12 -3 14 7 8 9 -6 11 -4 5
5 -6 10 -4 12 8 7 16 -6 30 6 33 31 2 10 -2 9 -16 -3 -15 -14 -18 -14 -23 -1
-4 11 -1 13 10 9 10 -4 14 -2 10 4 -8 12 11 12 30 0 9 -6 11 -3 6 9 -5 13 -3
15 7 9 10 -6 12 -4 7 8 -7 19 8 32 19 16 5 -8 3 -9 -6 -4 -9 5 -11 4 -6 -4 6
-9 11 -9 23 1 9 7 18 12 20 11 11 -9 12 0 2 20 -12 21 -11 21 6 7 10 -8 16 -9
11 -3 -7 13 17 68 31 68 4 0 7 4 5 9 -2 5 3 5 10 -1 7 -6 17 -13 23 -15 5 -1
9 -7 7 -11 -1 -5 3 -5 9 -2 8 5 8 10 0 18 -14 14 -14 37 0 37 5 0 7 -5 3 -12
-5 -7 -3 -8 5 -4 7 5 10 14 7 21 -2 7 1 18 7 24 14 14 40 15 32 1 -3 -5 -1
-10 4 -10 6 0 11 5 11 11 0 5 5 7 12 3 7 -4 8 -3 4 5 -4 6 -11 9 -16 6 -5 -3
-7 4 -5 15 6 30 15 41 27 34 7 -5 5 -11 -6 -19 -15 -11 -15 -13 -1 -19 9 -3
13 -2 10 4 -3 6 -1 10 5 10 8 0 10 10 6 28 l-6 27 16 -25 c8 -14 13 -17 10 -7
-3 9 -1 17 4 17 5 0 7 7 4 15 -4 8 -11 12 -17 8 -5 -3 -7 -1 -4 5 4 5 16 8 27
5 11 -3 17 -10 13 -16 -3 -6 -1 -7 6 -3 6 4 9 12 6 17 -4 5 1 12 9 15 9 3 13
10 10 15 -3 5 0 9 6 9 6 0 8 5 4 11 -4 8 -13 1 -22 -17 -9 -17 -17 -24 -20
-16 -2 6 -9 9 -14 6 -7 -4 -8 -2 -4 5 4 6 11 9 16 6 10 -6 36 34 32 48 -1 5 2
6 8 2 6 -3 7 -11 4 -17 -5 -7 -2 -8 5 -4 7 5 10 14 8 20 -3 7 -1 19 4 27 5 8
9 9 9 3 0 -7 7 -14 14 -17 10 -4 13 -1 10 7 -3 8 -1 17 5 21 8 4 8 12 1 25 -7
13 -7 21 0 25 6 4 8 10 5 15 -3 4 2 11 11 14 15 6 15 4 0 -21 l-17 -28 21 24
c22 25 22 48 0 43 -11 -3 -11 0 0 13 12 14 15 14 33 -2 19 -18 20 -17 9 4 -7
12 -17 24 -24 26 -10 4 -10 6 0 6 6 1 12 5 12 11 0 5 -8 7 -17 3 -19 -7 -18
-5 11 17 11 8 17 10 13 4 -3 -6 0 -11 7 -11 10 0 10 6 2 23 -7 15 -13 19 -18
11 -6 -9 -8 -9 -8 0 0 6 5 15 11 19 8 4 7 9 -2 15 -12 7 -12 10 0 21 9 8 11 9
7 1 -3 -6 -2 -14 4 -18 6 -4 8 -11 5 -16 -4 -5 -1 -9 4 -9 13 0 14 17 2 24 -5
4 -8 17 -6 31 2 20 0 23 -11 14 -11 -9 -14 -8 -14 0 0 7 -4 9 -10 6 -5 -3 -7
0 -4 8 3 8 1 18 -5 21 -6 4 -7 14 -4 23 4 11 3 14 -5 9 -8 -5 -10 -1 -6 11 5
17 5 17 -9 0 -14 -16 -14 -16 -14 8 0 13 3 22 7 20 4 -3 11 2 14 10 4 12 2 13
-13 6 -28 -15 -57 -9 -58 12 -2 19 -2 19 12 1 17 -24 40 -8 24 16 -9 13 -10
12 -5 -2 7 -23 -10 -24 -18 -2 -4 9 -9 14 -12 11 -4 -3 -13 0 -20 8 -8 8 -22
11 -31 8 -10 -4 -14 -2 -10 4 4 6 0 14 -9 17 -10 4 -13 2 -9 -7 4 -6 0 -3 -9
7 -8 10 -13 23 -10 27 3 5 0 9 -5 9 -13 0 -13 -2 -2 -33 7 -17 6 -24 -4 -24
-7 0 -11 6 -8 13 2 7 0 21 -6 31 -6 11 -11 13 -11 5 0 -7 -4 -10 -10 -7 -6 3
-7 -1 -4 -12 5 -17 5 -17 -6 0 -6 9 -8 22 -5 27 3 6 1 10 -4 10 -6 0 -11 -5
-11 -11 0 -5 -5 -7 -10 -4 -6 4 -8 10 -5 15 3 5 -4 7 -16 5 -15 -3 -19 0 -15
10 8 22 -2 18 -14 -4 -7 -14 -7 -22 2 -27 6 -4 8 -3 4 4 -3 6 1 9 9 8 23 -3
13 -20 -12 -22 -12 0 -20 3 -17 8 5 7 -10 12 -28 9 -11 -2 -10 13 2 25 7 7 2
10 -14 10 -14 0 -22 -4 -20 -8 3 -5 11 -5 17 -2 7 4 9 4 5 -1 -11 -12 -67 -12
-60 0 3 6 -2 4 -11 -4 -9 -7 -17 -10 -17 -5 0 5 -5 2 -10 -6 -5 -8 -10 -10
-10 -5 0 15 -43 16 -52 2 -6 -9 -8 -9 -8 0 0 7 8 17 18 23 14 9 13 10 -7 4
-17 -4 -21 -3 -16 6 5 8 4 11 -3 6 -6 -4 -9 -13 -6 -20 3 -8 0 -17 -7 -22 -7
-4 -10 -3 -6 3 10 15 -14 22 -41 12 -15 -6 -21 -13 -16 -21 4 -7 -2 -4 -14 6
-20 18 -27 15 -23 -8 1 -5 -6 -3 -15 5 -9 8 -20 13 -23 13 -3 -1 -12 1 -20 4
-8 3 -17 0 -19 -7 -3 -8 -9 -5 -19 8 -15 22 -33 28 -33 10 0 -5 6 -7 13 -3 9
5 9 4 1 -5 -9 -10 -17 -10 -33 -1 -28 14 -46 4 -29 -18 12 -13 10 -14 -9 -4
-26 14 -36 15 -28 3 3 -5 0 -13 -6 -17 -8 -4 -9 -3 -5 4 7 12 -4 16 -39 12
-17 -2 -18 0 -5 17 14 16 13 17 -2 5 -9 -8 -14 -20 -11 -28 4 -10 0 -12 -13
-7 -12 4 -15 3 -10 -5 4 -7 2 -12 -3 -12 -6 0 -11 5 -11 12 0 6 -10 3 -22 -8
-12 -10 -18 -14 -15 -7 5 8 0 11 -13 10 -14 -1 -19 -6 -15 -17 3 -9 -1 -7 -10
5 -13 17 -18 18 -36 7 -12 -8 -24 -11 -27 -8 -3 3 1 6 8 6 8 0 4 8 -9 19 -12
11 -21 22 -19 24 2 3 -1 9 -6 14 -5 5 -6 3 -2 -4 4 -7 2 -13 -3 -13 -17 0 -13
18 6 28 9 6 18 17 19 26 1 9 -2 14 -7 10 -5 -3 -7 -10 -4 -15 4 -5 2 -9 -4 -9
-5 0 -17 -3 -26 -7 -16 -6 -16 -5 -1 13 9 10 16 23 15 28 0 5 5 12 11 16 15
10 4 30 -16 30 -8 0 -12 -5 -9 -10 4 -6 12 -7 18 -3 8 5 8 2 0 -9 -7 -8 -10
-18 -6 -22 4 -4 -1 -4 -12 0 -12 5 -14 9 -7 12 10 3 10 7 1 18 -9 11 -8 15 5
20 9 3 23 3 32 0 14 -5 15 -4 4 9 -13 15 -3 37 25 57 6 5 5 8 -2 8 -7 0 -13 5
-13 11 0 6 10 8 23 5 12 -3 16 -3 9 0 -10 5 -9 9 3 18 15 10 14 12 -4 12 -11
0 -17 -4 -15 -8 3 -4 0 -8 -6 -8 -7 0 -10 5 -8 11 2 6 7 10 11 9 10 -1 47 44
47 57 0 4 -5 1 -10 -7 -8 -13 -10 -12 -10 3 0 10 -5 15 -11 12 -6 -4 -5 2 2
13 7 12 21 19 31 17 10 -2 16 0 13 6 -4 5 -11 7 -16 4 -5 -4 -9 -1 -9 4 0 6 4
11 10 11 5 0 6 7 3 17 -4 10 -2 14 4 10 7 -5 9 0 6 13 -5 19 -6 20 -20 3 -13
-16 -13 -16 -3 4 6 14 16 20 25 17 8 -4 12 -10 9 -15 -3 -5 0 -9 5 -9 19 0 12
18 -16 40 -16 12 -23 19 -16 15 8 -3 12 2 11 17 -1 38 1 49 11 44 5 -3 15 2
22 12 13 15 12 16 -3 4 -12 -10 -18 -10 -23 -1 -6 8 -9 8 -15 -1 -5 -8 -9 -8
-13 3 -4 12 0 14 18 11 13 -2 27 0 30 6 4 6 3 10 -2 9 -4 -1 -16 -1 -27 0 -17
1 -17 3 -2 25 11 18 13 27 4 32 -6 4 -8 3 -5 -3 4 -6 -3 -13 -16 -15 -17 -3
-23 0 -23 13 0 10 3 16 6 14 3 -2 12 0 20 5 13 8 13 11 1 22 -10 10 -12 10 -7
1 5 -8 1 -13 -9 -13 -10 0 -15 6 -12 13 3 7 -1 26 -7 42 -10 25 -13 26 -19 12
-4 -11 -3 -16 3 -12 6 3 10 2 10 -3 0 -5 -11 -9 -25 -9 -14 0 -25 4 -25 9 0 5
5 6 10 3 14 -9 12 19 -2 33 -18 18 -31 14 -25 -7 3 -14 1 -18 -9 -14 -8 3 -12
9 -9 13 3 5 2 15 -1 24 -5 14 -9 14 -22 4 -13 -11 -15 -10 -9 6 6 16 5 17 -7
7 -19 -16 -66 -24 -66 -12 0 6 9 8 19 6 11 -2 24 2 30 9 8 10 5 12 -17 11 -15
-1 -32 2 -39 7 -9 7 -11 2 -7 -19 2 -15 1 -23 -3 -18 -13 17 -36 17 -30 0 9
-22 -1 -18 -14 6 -9 17 -8 20 2 14 8 -5 10 -4 5 3 -13 21 -28 13 -21 -10 7
-23 7 -23 -10 -3 -14 17 -16 17 -11 3 3 -10 1 -18 -5 -18 -6 0 -7 -6 -3 -12 4
-7 4 -10 -1 -6 -4 4 -14 3 -22 -4 -7 -6 -16 -8 -20 -4 -3 3 -1 6 6 6 7 0 9 5
6 10 -4 6 -1 9 6 8 6 -2 14 3 16 10 4 9 -2 10 -24 1 -15 -6 -29 -10 -31 -9 -2
1 -7 -2 -10 -6 -4 -4 -1 -4 6 0 6 4 12 2 12 -4 0 -7 -7 -9 -16 -6 -9 3 -18 6
-21 6 -3 0 0 7 7 15 9 10 9 15 1 15 -6 0 -11 -5 -11 -11 0 -6 -7 -9 -14 -6
-10 4 -13 1 -9 -8 3 -8 9 -13 13 -10 4 3 13 -2 20 -10 9 -10 9 -15 1 -15 -6 0
-11 5 -11 11 0 8 -4 9 -13 0 -8 -6 -17 -8 -20 -4 -4 3 -7 1 -7 -6 0 -7 -4 -9
-10 -6 -18 11 -11 24 10 20 11 -2 18 0 15 5 -11 18 -40 3 -37 -19 2 -19 -2
-21 -19 -16 -16 5 -19 4 -14 -5 5 -9 4 -11 -4 -6 -6 4 -8 13 -5 19 4 7 4 9 -1
5 -4 -4 -15 -2 -23 5 -10 8 -9 2 4 -17 l19 -29 -30 19 c-19 12 -26 14 -20 5 6
-11 4 -13 -9 -8 -11 5 -15 3 -10 -5 5 -8 2 -9 -9 -5 -10 3 -17 2 -17 -3 0 -6
-4 -10 -10 -10 -5 0 -8 6 -6 13 1 6 1 8 -2 4 -2 -4 -10 -3 -16 2 -9 8 -13 7
-13 -4 0 -8 4 -12 9 -9 4 3 8 1 8 -4 0 -5 -11 -9 -25 -9 -14 0 -25 4 -25 9 0
5 5 6 12 2 7 -4 8 -3 4 4 -4 6 -13 9 -21 6 -8 -4 -12 -11 -8 -18 5 -8 3 -8 -8
0 -16 12 -29 12 -46 1 -7 -5 -13 -4 -13 1 0 6 7 12 15 16 8 3 15 10 15 15 0 6
-8 7 -17 4 -15 -6 -16 -5 -3 9 8 9 18 14 21 12 3 -2 6 3 6 11 0 13 -3 13 -18
-1 -13 -12 -19 -12 -25 -3 -4 7 -3 10 4 5 7 -4 10 1 9 14 -1 11 -6 20 -12 20
-6 0 -7 3 0 8 6 4 11 16 11 27 1 11 5 29 10 39 4 12 4 17 -3 13 -15 -10 -8 34
8 44 12 8 12 10 -1 20 -12 8 -10 9 9 4 16 -5 21 -4 16 4 -4 7 -3 17 2 24 5 7
8 18 7 25 -1 6 -2 16 -3 22 0 5 -7 7 -15 4 -8 -3 -16 -1 -20 4 -10 17 37 5 50
-13 8 -10 14 -14 14 -8 0 7 -11 20 -25 31 -20 16 -22 21 -10 26 8 3 19 -2 24
-12 9 -15 10 -14 8 5 0 12 -5 19 -9 17 -4 -3 -8 2 -8 11 0 10 5 13 12 9 6 -4
8 -3 4 4 -3 5 0 13 6 15 8 3 5 6 -6 6 -15 1 -16 4 -7 15 9 11 9 16 0 22 -8 5
-9 3 -4 -6 5 -9 4 -11 -4 -6 -8 6 -9 12 -2 20 6 7 8 16 4 19 -3 4 2 7 13 8 17
0 17 1 -3 9 -16 7 -20 15 -16 32 4 18 3 20 -6 8 -7 -9 -11 -10 -11 -3 0 6 5
15 11 18 7 5 5 13 -6 26 -17 17 -16 18 11 13 16 -2 24 -1 17 3 -22 15 -21 78
2 69 13 -4 13 -2 5 14 -6 10 -18 24 -28 29 -15 9 -14 10 8 11 22 1 23 2 7 11
-13 7 -16 17 -11 32 6 18 5 20 -8 10 -12 -11 -14 -9 -12 10 1 12 3 26 3 30 1
5 5 6 9 3 5 -3 9 1 9 9 0 8 -3 13 -5 10 -3 -2 -13 5 -23 16 -14 17 -16 26 -8
41 10 19 11 19 25 1 14 -16 14 -16 2 7 -7 14 -11 29 -10 34 2 5 -4 4 -12 -3
-9 -7 -14 -17 -11 -21 3 -5 1 -12 -5 -15 -6 -4 -9 -1 -8 7 2 7 -3 12 -10 10
-8 -1 -11 2 -7 8 3 6 10 8 15 5 4 -3 11 2 14 11 4 10 2 13 -6 8 -8 -5 -9 -2
-5 9 4 10 -2 24 -14 36 -13 12 -18 24 -14 32 5 8 4 10 -3 5 -7 -4 -12 -2 -12
3 0 6 -7 11 -15 11 -18 0 -20 16 -3 26 7 4 8 3 4 -4 -4 -7 -2 -12 4 -12 7 0
10 6 8 13 -3 6 -10 12 -16 12 -6 0 -19 10 -27 23 -9 12 -13 22 -9 22 3 0 1 6
-5 13 -6 8 -7 17 -3 22 4 4 -3 2 -15 -6 -24 -15 -20 -34 5 -24 9 3 13 3 9 -1
-4 -4 -2 -13 4 -20 6 -8 6 -14 0 -18 -5 -4 -12 -2 -16 4 -3 5 -3 10 1 10 3 0
-4 8 -16 18 -21 17 -22 19 -5 36 10 9 15 19 13 22 -3 2 -18 -8 -33 -23 -16
-16 -25 -23 -22 -17 8 14 -16 37 -28 26 -5 -4 -5 -2 -1 5 8 15 -33 14 -53 -1
-11 -8 -13 -8 -8 1 4 6 4 13 0 16 -5 2 -1 2 7 0 12 -3 12 -2 3 8 -10 9 -15 10
-27 0 -10 -9 -16 -9 -21 -1 -5 8 -11 8 -19 1 -7 -6 -17 -7 -21 -3 -5 4 -4 1 0
-7 6 -11 4 -13 -10 -7 -15 5 -16 4 -5 -9 11 -13 10 -14 -4 -9 -9 3 -16 11 -16
18 0 6 -5 3 -11 -7 -6 -9 -15 -14 -21 -11 -7 5 -8 2 -3 -5 5 -9 11 -9 17 -3 7
7 15 6 24 -3 19 -18 18 -31 -1 -15 -8 6 -20 8 -26 4 -7 -4 -17 0 -24 10 -11
15 -13 15 -19 1 -3 -9 -2 -14 3 -11 5 3 11 -1 15 -9 3 -8 0 -17 -6 -21 -7 -4
-8 -3 -4 4 4 7 1 12 -8 12 -8 0 -18 -10 -21 -21 -6 -17 -9 -19 -16 -8 -5 8 -9
10 -9 5 0 -5 -8 -2 -17 5 -10 8 -14 9 -10 2 4 -6 1 -15 -6 -20 -7 -4 -16 -16
-20 -25 -3 -10 -12 -18 -20 -18 -7 0 -20 -12 -29 -28 -11 -18 -26 -28 -44 -30
-16 -1 -32 -9 -37 -17 -4 -9 -11 -14 -15 -11 -4 2 -13 -2 -20 -10 -20 -21 2
-17 32 7 15 12 30 19 33 15 4 -3 1 -6 -7 -6 -10 0 -10 -4 1 -17 13 -16 12 -17
-3 -5 -14 11 -18 10 -27 -5 -6 -10 -11 -13 -11 -8 0 6 -4 4 -9 -3 -6 -11 -11
-10 -25 3 -19 20 -21 7 -2 -17 7 -10 17 -14 21 -10 5 4 5 2 2 -4 -3 -6 -25 -9
-49 -8 -30 2 -37 0 -23 -5 11 -5 23 -7 28 -4 4 2 7 -1 7 -6 0 -6 -11 -11 -25
-11 -14 0 -25 -5 -25 -11 0 -5 4 -7 10 -4 6 3 7 -1 3 -10 -3 -9 -9 -13 -12 -8
-3 4 -13 9 -21 11 -9 1 -6 -6 9 -18 28 -24 15 -27 -19 -3 l-25 16 25 -29 c14
-15 18 -23 8 -16 -11 9 -18 10 -23 2 -3 -5 -1 -10 6 -10 7 0 9 -3 6 -6 -4 -4
-14 -1 -22 6 -12 10 -19 10 -27 2 -7 -7 -9 -12 -5 -12 4 0 3 -10 -3 -22 -10
-21 -10 -21 3 -6 8 10 18 14 23 10 4 -4 2 1 -5 11 -7 9 -9 17 -3 17 22 0 20
-29 -4 -45 -14 -9 -22 -21 -18 -27 4 -7 3 -8 -5 -4 -6 4 -9 11 -7 15 3 4 1 13
-4 21 -6 10 -8 3 -7 -20 1 -20 9 -38 17 -42 10 -5 7 -7 -10 -5 -16 1 -25 -3
-25 -13 0 -17 -24 -21 -42 -7 -9 6 -13 6 -13 -1 0 -6 10 -14 22 -18 19 -6 19
-7 4 -16 -9 -5 -13 -15 -10 -21 4 -7 3 -8 -2 -4 -5 5 -9 14 -9 19 0 6 -6 12
-13 14 -7 1 -8 0 -2 -3 13 -6 3 -23 -13 -19 -7 1 -9 1 -4 -1 4 -3 -2 -18 -13
-34 -12 -15 -20 -36 -18 -46 2 -12 -4 -18 -18 -19 -12 -1 -26 -4 -33 -8 -18
-11 -13 5 7 21 15 12 14 12 -10 2 -18 -8 -25 -17 -21 -28 4 -11 1 -10 -11 4
-10 11 -15 14 -11 8 8 -17 -26 -4 -43 16 -11 13 -12 13 -7 1 4 -10 2 -9 -8 2
-8 10 -17 15 -20 11 -4 -3 -7 -1 -7 6 0 8 -6 11 -16 7 -9 -3 -12 -2 -9 5 4 6
13 8 21 5 7 -3 16 -1 20 5 8 14 -16 41 -32 35 -20 -8 -27 11 -13 35 8 15 8 19
0 15 -6 -4 -11 -3 -11 3 0 5 -9 8 -20 6 -24 -5 -25 -2 -3 16 9 8 14 9 11 4 -4
-6 1 -11 11 -11 10 0 18 6 18 12 0 7 -7 10 -15 6 -10 -3 -13 -1 -8 7 4 6 4 10
-1 9 -4 -2 -9 -1 -10 2 -1 3 -8 18 -17 34 -8 16 -13 33 -10 38 5 8 -8 11 -36
9 -13 -1 -12 1 1 11 14 10 14 13 -5 32 -12 12 -25 20 -30 18 -5 -2 -6 4 -3 12
4 10 1 13 -9 9 -7 -3 -14 -9 -14 -15 0 -5 -5 -6 -10 -3 -7 4 -3 14 10 25 21
18 21 19 2 17 -12 0 -18 -5 -15 -11 3 -5 1 -6 -6 -2 -9 6 -9 11 0 22 6 7 16
11 22 7 6 -4 7 -1 2 6 -5 9 -10 10 -18 2 -6 -6 -20 -11 -32 -10 -17 0 -17 1 5
10 l25 10 -25 19 c-13 10 -29 18 -35 17 -5 -1 -9 4 -7 11 1 8 -2 11 -9 6 -9
-5 -10 -2 -5 12 6 15 5 16 -5 7 -10 -10 -8 -18 11 -38 12 -13 26 -23 29 -20 4
2 13 0 21 -6 12 -7 10 -9 -7 -9 -12 0 -23 -3 -26 -7 -2 -5 -2 -3 -1 4 5 20
-21 34 -36 20 -12 -10 -12 -9 -1 6 9 11 10 17 2 17 -6 0 -11 7 -11 15 0 9 -6
12 -17 8 -10 -3 -15 -3 -11 2 8 8 -20 34 -37 35 -5 0 -3 -5 5 -10 13 -8 13
-10 -1 -10 -22 0 -31 11 -19 25 7 8 5 12 -4 12 -8 0 -13 -8 -11 -19 3 -13 -2
-18 -21 -18 -14 0 -23 -4 -20 -9 7 -11 -14 -20 -32 -14 -6 3 -9 10 -6 16 4 7
-1 4 -11 -5 -16 -15 -16 -19 -4 -34 12 -16 12 -17 -1 -9 -8 5 -21 10 -28 11
-17 3 -53 -27 -46 -38 8 -12 -10 -10 -23 3 -9 9 -11 7 -9 -6 2 -11 12 -19 23
-20 16 -1 20 3 18 17 -2 10 0 16 4 13 5 -3 12 2 15 11 4 9 9 14 13 10 3 -3 -1
-14 -10 -23 -8 -10 -16 -22 -16 -28 0 -5 -15 -11 -33 -13 -18 -2 -37 -10 -41
-18 -5 -8 -12 -12 -17 -9 -5 3 -11 2 -14 -3 -2 -4 6 -8 19 -8 13 0 23 4 22 9
-1 5 5 12 13 14 12 4 12 3 2 -5 -8 -5 -13 -13 -13 -18 1 -5 -3 -10 -9 -10 -5
-1 -15 -2 -21 -3 -5 0 -7 -6 -4 -11 4 -6 10 -8 15 -5 5 3 12 0 16 -6 4 -7 3
-9 -3 -6 -10 7 -42 -21 -35 -30 2 -3 0 -8 -4 -11 -4 -4 -4 -2 -1 4 4 7 0 14
-8 18 -8 3 -15 2 -15 -2 0 -5 -9 -18 -20 -29 -20 -22 -20 -22 2 -29 21 -6 21
-7 3 -20 -10 -8 -16 -14 -12 -14 4 0 3 -9 -3 -20 -6 -10 -17 -17 -24 -14 -8 3
-17 0 -22 -7 -5 -8 -3 -10 6 -4 8 5 11 3 8 -6 -3 -8 -11 -13 -17 -12 -6 2 -10
-1 -8 -6 1 -5 -7 -17 -18 -25 -13 -11 -15 -15 -5 -14 8 2 22 12 32 23 9 11 17
15 18 8 0 -6 -6 -13 -12 -16 -10 -3 -10 -7 0 -19 11 -14 8 -15 -25 -13 -21 2
-30 2 -20 -1 19 -6 22 -19 7 -29 -6 -4 -7 -11 -4 -17 4 -6 2 -8 -3 -5 -6 4
-13 0 -17 -8 -3 -8 -11 -15 -18 -14 -10 0 -10 2 0 6 6 2 12 8 12 12 0 11 -39
11 -46 -1 -4 -7 -2 -8 4 -4 8 5 10 2 6 -8 -3 -9 -10 -16 -16 -16 -5 0 -6 5 -3
10 4 7 -3 9 -19 6 -14 -3 -30 2 -37 10 -8 10 -15 11 -25 4 -10 -9 -11 -6 -7
10 4 16 8 18 19 9 9 -7 14 -8 14 -1 0 15 -22 21 -42 11 -21 -11 -35 8 -19 24
9 9 11 7 6 -8 -5 -15 -4 -17 3 -6 14 20 -18 63 -36 49 -7 -6 -15 -8 -19 -4 -3
3 -1 6 5 6 7 0 12 5 12 11 0 6 -7 8 -16 5 -10 -4 -13 -2 -8 6 5 8 2 9 -10 5
-10 -4 -15 -3 -11 4 4 5 16 7 28 4 20 -5 20 -5 4 5 -9 6 -15 16 -11 22 4 5 -6
2 -22 -7 -16 -9 -21 -11 -12 -3 15 13 15 15 -5 28 -12 8 -25 13 -29 12 -4 -1
-5 5 -1 14 5 12 8 12 19 -5 16 -22 51 -25 51 -4 0 10 -4 10 -15 1 -11 -10 -18
-7 -32 12 -14 18 -15 27 -7 32 7 4 2 6 -10 5 -15 -1 -19 -5 -12 -13 6 -7 4
-15 -5 -24 -13 -10 -15 -8 -11 8 2 11 -3 32 -11 46 -7 15 -13 33 -11 39 1 6
-9 12 -23 12 -25 1 -75 24 -54 25 6 0 12 12 12 26 0 17 -3 22 -9 13 -4 -7 -5
-17 -3 -21 3 -4 -2 -5 -11 -2 -12 5 -13 10 -6 17 15 15 14 28 -1 25 -7 -2 -12
5 -11 16 1 13 -2 15 -10 7 -7 -7 -6 -15 3 -26 7 -8 8 -15 3 -15 -5 0 -15 11
-21 25 -15 32 -15 38 0 29 7 -4 8 -3 4 5 -6 9 -11 9 -22 0 -11 -9 -14 -8 -14
5 0 9 6 16 13 16 6 1 1 7 -13 15 -33 19 -45 19 -26 -1 9 -8 16 -21 16 -27 0
-8 -3 -7 -9 2 -5 7 -11 9 -13 5 -3 -5 -3 -3 -2 4 2 7 -3 15 -12 19 -13 5 -13
8 3 26 l18 21 -28 -18 c-28 -17 -28 -17 -18 3 14 25 14 42 0 18 -8 -14 -14
-15 -31 -6 -16 9 -18 13 -7 20 7 4 10 11 6 15 -3 4 -13 1 -22 -6 -9 -8 -15 -8
-15 -2 0 6 5 14 10 17 6 3 10 12 9 18 0 9 -2 9 -6 0 -2 -7 -9 -13 -14 -13 -4
0 -5 8 -2 17 6 15 5 16 -9 3 -9 -8 -13 -19 -10 -24 3 -5 0 -6 -7 -2 -9 6 -9
11 0 22 9 11 9 14 0 14 -7 0 -9 4 -6 10 3 6 -1 7 -10 3 -14 -5 -14 -8 -3 -15
10 -8 10 -9 -2 -5 -9 2 -14 14 -13 28 3 24 3 24 -10 3 l-12 -22 -19 23 c-11
13 -26 20 -35 17 -9 -3 -12 -1 -7 6 4 7 2 12 -4 12 -6 0 -8 4 -5 10 3 6 -1 7
-10 4 -12 -5 -13 -9 -4 -20 15 -18 2 -18 -17 0 -12 13 -11 17 8 30 12 9 18 16
13 16 -6 0 -19 -7 -30 -16 -18 -13 -20 -13 -27 3 -5 11 -7 5 -4 -17 5 -34 -3
-25 -18 23 -4 14 -10 16 -23 8 -13 -7 -23 -5 -37 7 -19 17 -19 16 -2 -9z m56
-9 c0 -5 -8 -10 -17 -10 -15 0 -16 2 -3 10 19 12 20 12 20 0z m2650 -28 c3 -2
-4 -2 -15 0 -11 1 -19 -2 -18 -8 1 -6 -4 -11 -11 -11 -15 0 -15 14 -2 35 6 10
11 11 24 0 10 -7 19 -14 22 -16z m-214 -84 c5 -7 3 -8 -6 -3 -10 6 -12 4 -6
-11 5 -14 4 -16 -5 -7 -6 6 -8 16 -5 22 9 14 13 14 22 -1z m-71 -77 c3 -5 2
-12 -3 -15 -5 -3 -9 1 -9 9 0 17 3 19 12 6z m529 -7 c3 -8 2 -12 -4 -9 -6 3
-10 10 -10 16 0 14 7 11 14 -7z m-1524 -4 c0 -5 -5 -10 -11 -10 -5 0 -7 5 -4
10 3 6 8 10 11 10 2 0 4 -4 4 -10z m1555 -20 c3 -5 1 -10 -4 -10 -6 0 -11 5
-11 10 0 6 2 10 4 10 3 0 8 -4 11 -10z m-3240 -89 c3 -5 2 -12 -3 -15 -5 -3
-9 1 -9 9 0 17 3 19 12 6z m1894 -63 c7 -11 7 -18 1 -18 -5 0 -10 5 -10 11 0
8 -5 7 -15 -1 -13 -11 -14 -10 -9 5 6 14 4 16 -6 10 -8 -5 -11 -4 -7 2 10 16
33 11 46 -9z m1386 1 c-4 -5 -12 -9 -18 -8 -9 0 -8 2 1 6 6 2 9 10 6 15 -4 7
-2 8 5 4 6 -4 9 -12 6 -17z m-3293 -22 c-7 -8 -8 -18 -4 -22 4 -5 1 -5 -5 -1
-10 5 -10 11 -1 26 7 11 14 17 17 15 2 -3 -1 -11 -7 -18z m874 -9 c0 -10 -4
-18 -8 -18 -4 0 -8 8 -8 18 0 14 -2 15 -10 2 -5 -8 -10 -10 -10 -4 0 14 7 21
23 21 7 0 13 -9 13 -19z m1070 -47 c-3 -5 1 -12 10 -15 9 -4 14 -9 11 -13 -4
-3 -2 -12 4 -20 9 -9 8 -13 0 -13 -10 0 -15 13 -12 33 0 4 -3 8 -9 8 -5 1 -14
2 -19 3 -5 0 -13 5 -18 9 -4 5 -2 7 6 5 7 -1 16 3 18 10 3 7 -3 12 -14 12 -15
0 -16 2 -3 10 16 10 36 -12 26 -29z m-583 12 c-5 -12 -3 -14 8 -8 8 5 11 4 6
0 -4 -5 -14 -10 -22 -11 -12 -2 -12 2 -5 17 13 23 22 25 13 2z m1937 -13 c0
-5 -5 -10 -11 -10 -5 0 -7 5 -4 10 3 6 8 10 11 10 2 0 4 -4 4 -10z m30 -57 c0
-3 -7 -2 -16 1 -12 5 -14 1 -9 -17 5 -19 4 -20 -5 -4 -13 21 -5 38 15 30 8 -3
15 -7 15 -10z m-1050 -92 c0 -5 -7 -12 -16 -15 -14 -5 -15 -4 -4 9 14 17 20
19 20 6z m-1234 -13 c4 -7 3 -8 -4 -4 -7 4 -12 2 -12 -5 0 -7 -3 -10 -6 -6 -6
5 3 27 11 27 2 0 7 -5 11 -12z m1003 -11 c0 -9 -2 -9 -5 -1 -3 7 -15 10 -27 8
-21 -4 -21 -4 -2 5 23 10 35 5 34 -12z m216 -16 c-9 -8 -36 -10 -30 -2 2 4 11
8 20 8 8 0 13 -3 10 -6z m-994 -34 c-10 -9 -11 -8 -5 6 3 10 9 15 12 12 3 -3
0 -11 -7 -18z m-1271 -6 c0 -6 -4 -12 -8 -15 -5 -3 -9 1 -9 9 0 8 4 15 9 15 4
0 8 -4 8 -9z m2050 -1 c8 -5 11 -10 5 -10 -5 0 -17 5 -25 10 -8 5 -10 10 -5
10 6 0 17 -5 25 -10z m1267 -25 c0 -8 -4 -12 -9 -9 -4 3 -8 9 -8 15 0 5 4 9 8
9 5 0 9 -7 9 -15z m-3317 -55 c0 -5 -7 -10 -16 -10 -8 0 -12 5 -9 10 3 6 10
10 16 10 5 0 9 -4 9 -10z m3315 -12 c-4 -35 -4 -35 -21 -42 -15 -6 -15 -4 -3
10 8 10 13 25 11 36 -2 10 1 18 6 18 5 0 8 -10 7 -22z m-9 -123 c-3 -23 -22
-39 -31 -26 -3 7 -1 10 6 9 7 -2 14 3 15 10 2 19 4 22 8 22 2 0 3 -7 2 -15z
m-3292 -87 c-5 -8 -1 -9 12 -4 14 5 16 4 7 -5 -13 -13 -37 -3 -28 12 4 5 8 9
11 9 3 0 2 -5 -2 -12z m-611 -134 c-3 -8 -12 -13 -20 -10 -8 3 -17 6 -21 6 -3
0 3 6 13 14 23 17 37 12 28 -10z m4088 -81 c11 -15 11 -16 -1 -6 -11 10 -17
10 -29 0 -14 -11 -14 -10 -2 6 7 9 15 17 16 17 1 0 9 -8 16 -17z m526 11 c-3
-3 -12 -4 -19 -1 -8 3 -5 6 6 6 11 1 17 -2 13 -5z m-710 -30 c-3 -3 -12 -4
-19 -1 -8 3 -5 6 6 6 11 1 17 -2 13 -5z m-4067 -99 c0 -2 -6 -5 -13 -8 -8 -3
-14 1 -14 8 0 7 6 11 14 8 7 -3 13 -6 13 -8z m5 -85 c3 -6 -1 -7 -9 -4 -18 7
-21 14 -7 14 6 0 13 -4 16 -10z m20 -80 c3 -6 -1 -7 -9 -4 -18 7 -21 14 -7 14
6 0 13 -4 16 -10z m4770 -9 c3 -5 2 -12 -3 -15 -5 -3 -9 1 -9 9 0 17 3 19 12
6z m-6 -92 c-22 -13 -31 -11 -17 5 7 8 17 12 22 9 4 -3 2 -9 -5 -14z m-35 -78
c3 -5 -1 -14 -8 -20 -10 -9 -16 -9 -21 -1 -4 6 -1 9 7 8 7 -2 12 3 11 10 -3
14 3 16 11 3z m-4654 -15 c0 -3 -4 -8 -10 -11 -5 -3 -10 -1 -10 4 0 6 5 11 10
11 6 0 10 -2 10 -4z m0 -40 c0 -9 -30 -14 -35 -6 -4 6 3 10 14 10 12 0 21 -2
21 -4z m0 -46 c0 -5 -5 -10 -11 -10 -5 0 -7 5 -4 10 3 6 8 10 11 10 2 0 4 -4
4 -10z m4620 -34 c0 -3 -4 -8 -10 -11 -5 -3 -10 -1 -10 4 0 6 5 11 10 11 6 0
10 -2 10 -4z m-4610 -55 c0 -6 -8 -3 -18 7 -11 9 -17 20 -15 25 5 9 33 -18 33
-32z m-494 -18 c-10 -10 -19 5 -10 18 6 11 8 11 12 0 2 -7 1 -15 -2 -18z
m5499 -3 c-3 -5 -12 -10 -18 -10 -7 0 -6 4 3 10 19 12 23 12 15 0z m266 -7
c13 -16 12 -17 -3 -4 -10 7 -18 15 -18 17 0 8 8 3 21 -13z m-5827 -5 c-3 -4
-11 -5 -19 -1 -21 7 -19 12 4 10 11 0 18 -5 15 -9z m5196 -3 c0 -2 -9 -3 -19
-2 -11 0 -18 5 -15 9 4 6 34 0 34 -7z m330 11 c0 -3 -4 -8 -10 -11 -5 -3 -10
-1 -10 4 0 6 5 11 10 11 6 0 10 -2 10 -4z m-105 -16 c-3 -5 -12 -10 -18 -10
-7 0 -6 4 3 10 19 12 23 12 15 0z m645 -10 c0 -5 -2 -10 -4 -10 -3 0 -8 5 -11
10 -3 6 -1 10 4 10 6 0 11 -4 11 -10z m156 -65 c1 -8 -2 -13 -7 -9 -5 3 -6 10
-3 16 5 7 1 9 -9 5 -11 -4 -14 -2 -10 9 7 18 25 4 29 -21z m-6798 -37 c-2 -7
3 -12 10 -10 8 1 11 -2 8 -7 -3 -5 -16 -7 -29 -4 -21 4 -22 4 -3 -11 11 -9 15
-16 10 -16 -6 0 -15 5 -22 12 -9 9 -8 16 5 30 19 21 24 23 21 6z m52 2 c0 -5
-2 -10 -4 -10 -3 0 -8 5 -11 10 -3 6 -1 10 4 10 6 0 11 -4 11 -10z m-113 -130
c-1 -21 -10 -18 -13 5 -1 8 2 15 6 15 5 0 8 -9 7 -20z m23 -73 c0 -2 -10 -12
-22 -23 l-23 -19 19 23 c18 21 26 27 26 19z m6913 -180 c-5 -8 -8 -7 -11 1 -2
7 -9 9 -14 6 -7 -4 -8 -2 -4 4 4 6 13 9 21 6 8 -4 12 -11 8 -17z m-6653 -259
c0 -5 4 -7 8 -4 5 3 9 -1 9 -9 0 -19 1 -19 -28 11 -17 18 -19 23 -6 18 9 -3
17 -10 17 -16z m124 -123 c-4 -8 -7 -15 -9 -15 -2 0 -5 7 -9 15 -3 9 0 15 9
15 9 0 12 -6 9 -15z m6180 -3 c3 -5 -1 -9 -9 -9 -8 0 -15 4 -15 9 0 4 4 8 9 8
6 0 12 -4 15 -8z m-6000 -90 c2 -4 -5 -9 -17 -9 -17 -2 -19 0 -7 7 18 12 18
12 24 2z m5841 -2 c-3 -5 -12 -10 -18 -10 -7 0 -6 4 3 10 19 12 23 12 15 0z
m-5765 -65 c-5 -7 -9 -14 -7 -16 1 -2 0 -3 -2 -1 -11 7 -7 29 5 29 9 0 11 -4
4 -12z m-10 -190 c7 -9 8 -15 2 -15 -5 0 -12 7 -16 15 -3 8 -4 15 -2 15 2 0 9
-7 16 -15z m5687 -15 c-1 -21 -10 -18 -13 5 -1 8 2 15 6 15 5 0 8 -9 7 -20z
m-5905 -94 c7 4 8 2 4 -4 -4 -6 -13 -9 -21 -6 -8 4 -12 11 -8 17 5 8 8 7 11
-1 2 -7 9 -9 14 -6z m48 4 c0 -5 -5 -10 -11 -10 -5 0 -7 5 -4 10 3 6 8 10 11
10 2 0 4 -4 4 -10z m6035 0 c3 -5 1 -10 -4 -10 -6 0 -11 5 -11 10 0 6 2 10 4
10 3 0 8 -4 11 -10z m103 -45 c-3 -3 -9 2 -12 12 -6 14 -5 15 5 6 7 -7 10 -15
7 -18z m62 -30 c0 -2 -9 -3 -19 -2 -11 0 -18 5 -15 9 4 6 34 0 34 -7z m-6396
-63 c2 -4 -4 -8 -14 -8 -10 0 -16 4 -14 8 3 4 9 8 14 8 5 0 11 -4 14 -8z
m6482 -28 c-1 -8 -6 -17 -10 -21 -4 -4 -7 -3 -6 2 1 6 2 17 1 25 -1 13 -2 13
-11 0 -7 -12 -9 -10 -8 6 2 18 5 20 19 11 9 -6 16 -16 15 -23z m-6525 -17
c-10 -9 -11 -8 -5 6 3 10 9 15 12 12 3 -3 0 -11 -7 -18z m6569 -37 c0 -5 -8
-10 -17 -10 -15 0 -16 2 -3 10 19 12 20 12 20 0z m4 -28 c2 -4 -5 -9 -17 -9
-17 -2 -19 0 -7 7 18 12 18 12 24 2z m-6611 -139 c-7 -2 -10 -10 -7 -18 3 -8
13 -11 22 -7 16 5 16 5 0 -11 -17 -17 -33 -23 -24 -9 2 4 1 14 -4 22 -9 15 8
46 19 34 3 -4 1 -9 -6 -11z m52 -73 c3 -5 1 -10 -4 -10 -6 0 -11 5 -11 10 0 6
2 10 4 10 3 0 8 -4 11 -10z m45 -22 c0 -4 -4 -8 -9 -8 -6 0 -12 4 -15 8 -3 5
1 9 9 9 8 0 15 -4 15 -9z m6315 -47 c3 -5 2 -12 -3 -15 -5 -3 -9 1 -9 9 0 17
3 19 12 6z m15 -32 c-7 -11 -14 -18 -17 -15 -3 3 0 12 7 21 18 21 23 19 10 -6z
m-90 -37 c0 -5 -6 -16 -13 -26 -12 -17 -14 -17 -20 -3 -4 10 -2 16 6 14 7 -1
11 4 10 11 -2 6 2 12 7 12 6 0 10 -4 10 -8z m-6017 -29 c-4 -10 -2 -14 4 -10
5 3 10 -1 10 -9 0 -13 -2 -13 -15 0 -8 8 -11 19 -8 25 11 17 16 13 9 -6z m157
-74 c0 -5 5 -7 10 -4 6 3 10 1 10 -4 0 -14 -17 -14 -25 -1 -4 6 -11 7 -17 4
-7 -4 -8 -2 -4 4 9 15 26 16 26 1z m20 -39 c0 -5 -2 -10 -4 -10 -3 0 -8 5 -11
10 -3 6 -1 10 4 10 6 0 11 -4 11 -10z m-105 -189 c-3 -3 -10 1 -14 8 -7 10
-10 8 -16 -8 -4 -13 -9 -20 -12 -18 -2 3 1 15 7 27 9 17 14 19 26 9 8 -6 12
-14 9 -18z m5894 -58 c-7 -10 -14 -19 -15 -21 -1 -2 -4 4 -8 13 -3 9 -2 13 4
10 6 -3 10 -1 10 4 0 6 5 11 11 11 8 0 7 -6 -2 -17z m-6009 -13 c0 -5 -7 -7
-15 -4 -8 4 -12 10 -9 15 6 11 24 2 24 -11z m-16 -19 c3 -5 0 -8 -7 -7 -6 0
-13 -3 -15 -9 -3 -10 -34 -31 -39 -27 -6 4 -3 12 5 13 4 1 13 10 20 20 14 21
28 24 36 10z m6294 -196 c-2 -8 6 -21 17 -30 20 -16 20 -16 -1 -6 -12 6 -24 8
-28 6 -3 -3 -4 -2 -1 1 2 4 0 14 -5 24 -5 10 -7 20 -3 23 9 10 24 -3 21 -18z
m87 -117 c-3 -11 -7 -23 -11 -27 -4 -3 -4 2 -1 11 3 9 1 18 -5 20 -6 2 -8 10
-4 16 11 18 25 5 21 -20z m135 -203 c0 -12 -19 -12 -23 0 -4 9 -1 12 9 8 7 -3
14 -7 14 -8z m-6997 -116 c-8 -8 -13 -7 -18 2 -6 8 -4 10 5 4 10 -6 12 -4 6
11 -6 15 -5 17 5 7 9 -10 10 -16 2 -24z m6991 -29 c-6 -6 -10 -3 -10 10 0 13
4 16 10 10 7 -7 7 -13 0 -20z m-6954 -90 c0 -5 -5 -10 -11 -10 -5 0 -7 5 -4
10 3 6 8 10 11 10 2 0 4 -4 4 -10z m40 -14 c0 -2 -8 -10 -17 -17 -16 -13 -17
-12 -4 4 13 16 21 21 21 13z m109 -92 c4 3 8 -1 8 -9 0 -11 -4 -12 -14 -4 -7
6 -13 17 -12 23 0 7 2 6 6 -2 2 -6 8 -10 12 -8z m65 -30 c3 -8 2 -12 -4 -9 -6
3 -10 10 -10 16 0 14 7 11 14 -7z m823 -6 c-3 -8 -6 -5 -6 6 -1 11 2 17 5 13
3 -3 4 -12 1 -19z m-707 -14 c0 -2 -7 -4 -15 -4 -8 0 -15 4 -15 10 0 5 7 7 15
4 8 -4 15 -8 15 -10z m5760 -16 c0 -5 -11 -1 -25 8 -14 9 -25 18 -25 20 0 2
11 -2 25 -8 14 -6 25 -15 25 -20z m-4935 12 c-3 -5 -12 -10 -18 -10 -7 0 -6 4
3 10 19 12 23 12 15 0z m-455 -10 c0 -5 -5 -10 -11 -10 -5 0 -7 5 -4 10 3 6 8
10 11 10 2 0 4 -4 4 -10z m92 1 c8 11 9 11 6 1 -4 -16 -22 -18 -24 -2 -2 7 -1
6 3 -1 4 -8 8 -7 15 2z m5765 -6 c0 -8 -4 -12 -9 -9 -4 3 -8 0 -8 -7 0 -7 -2
-10 -5 -7 -7 7 5 38 14 38 4 0 8 -7 8 -15z m-6056 -12 c13 -17 13 -17 -6 -3
-11 8 -22 16 -24 17 -2 2 0 3 6 3 6 0 17 -8 24 -17z m5264 -3 c3 -6 -1 -7 -9
-4 -18 7 -21 14 -7 14 6 0 13 -4 16 -10z m-4591 -35 c-7 -18 -20 -19 -30 -3
-4 6 -3 8 4 4 6 -3 13 -2 17 4 9 15 15 12 9 -5z m-4 -31 c0 -8 -19 -13 -24 -6
-3 5 1 9 9 9 8 0 15 -2 15 -3z m4601 -77 c-10 -9 -11 -8 -5 6 3 10 9 15 12 12
3 -3 0 -11 -7 -18z m76 -111 c0 -8 -6 -12 -15 -9 -11 5 -11 7 0 14 7 5 13 9
14 9 0 0 1 -6 1 -14z m8 -95 c3 -5 2 -12 -3 -15 -5 -3 -9 1 -9 9 0 17 3 19 12
6z m-4787 -59 c-10 -2 -18 -8 -18 -13 0 -6 6 -7 13 -3 9 6 9 5 0 -8 -7 -8 -9
-19 -5 -24 4 -4 -1 -2 -10 5 -13 10 -15 18 -8 31 5 9 7 20 4 23 -3 3 5 3 18
-1 18 -5 19 -7 6 -10z m4812 -112 c0 -5 -2 -10 -4 -10 -3 0 -8 5 -11 10 -3 6
-1 10 4 10 6 0 11 -4 11 -10z m-25 -40 c3 -5 1 -10 -4 -10 -6 0 -11 5 -11 10
0 6 2 10 4 10 3 0 8 -4 11 -10z m-4781 -55 c14 -14 22 -25 18 -25 -10 0 -25
12 -41 33 -20 25 -6 21 23 -8z m517 -58 c-10 -9 -11 -8 -5 6 3 10 9 15 12 12
3 -3 0 -11 -7 -18z m81 7 c-2 -5 -10 -8 -18 -6 -8 2 -14 -2 -14 -8 0 -5 -5
-10 -10 -10 -6 0 -6 7 2 19 11 18 46 23 40 5z m183 6 c3 -5 1 -10 -4 -10 -6 0
-11 5 -11 10 0 6 2 10 4 10 3 0 8 -4 11 -10z m-11 -26 c9 -3 16 -11 16 -16 0
-6 -6 -5 -15 2 -11 9 -15 9 -15 1 0 -7 -5 -9 -10 -6 -6 4 -8 11 -5 16 7 11 9
11 29 3z m3209 -9 c-3 -9 -8 -14 -10 -11 -3 3 -2 9 2 15 9 16 15 13 8 -4z
m480 -40 c-3 -9 -8 -14 -10 -11 -3 3 -2 9 2 15 9 16 15 13 8 -4z m-4235 -20
c6 11 12 15 12 9 0 -15 -25 -36 -33 -27 -4 3 -7 16 -6 27 1 18 2 17 8 -4 7
-24 7 -24 19 -5z m4347 7 c-3 -3 -11 0 -18 7 -9 10 -8 11 6 5 10 -3 15 -9 12
-12z m-515 -168 c0 -2 -7 -4 -15 -4 -8 0 -15 4 -15 10 0 5 7 7 15 4 8 -4 15
-8 15 -10z m-3293 -109 c0 -8 -4 -12 -9 -9 -5 3 -6 10 -3 15 9 13 12 11 12 -6z
m1113 -114 c0 -5 -7 -12 -16 -15 -14 -5 -15 -4 -4 9 14 17 20 19 20 6z m1050
-33 c0 -5 -9 -3 -20 4 -11 7 -20 16 -20 20 0 5 9 3 20 -4 11 -7 20 -16 20 -20z
m115 -67 c3 -5 2 -12 -3 -15 -5 -3 -9 1 -9 9 0 17 3 19 12 6z m1012 -7 c-3 -3
-12 -4 -19 -1 -8 3 -5 6 6 6 11 1 17 -2 13 -5z m-2323 -66 c-5 -7 -9 -16 -9
-20 0 -9 -14 -11 -16 -2 -3 9 24 44 29 39 2 -2 0 -10 -4 -17z m1036 19 c0 -2
-10 -12 -22 -23 -12 -10 -18 -13 -14 -6 4 6 3 12 -3 12 -5 0 -12 -5 -14 -10
-3 -6 -4 -5 -3 2 2 7 10 13 19 13 8 0 19 4 23 8 8 7 14 9 14 4z m-1081 -76 c7
-5 9 -11 5 -14 -5 -3 -15 1 -22 9 -14 16 -5 18 17 5z m981 -96 c11 -13 10 -14
-4 -9 -9 3 -16 10 -16 15 0 13 6 11 20 -6z m-1125 -24 c3 -5 2 -12 -3 -15 -5
-3 -9 1 -9 9 0 17 3 19 12 6z m665 5 c0 -2 -8 -10 -17 -17 -16 -13 -17 -12 -4
4 13 16 21 21 21 13z m1830 -50 c0 -2 -7 -7 -16 -10 -8 -3 -12 -2 -9 4 6 10
25 14 25 6z m-1460 -41 c-7 -8 -17 -15 -22 -15 -11 0 14 29 26 30 5 0 3 -7 -4
-15z m-1795 -15 c-3 -5 -12 -10 -18 -10 -7 0 -6 4 3 10 19 12 23 12 15 0z
m3234 -9 c7 -5 9 -11 5 -14 -5 -3 -15 1 -22 9 -14 16 -5 18 17 5z m-1646 -61
c3 -11 1 -18 -4 -14 -5 3 -9 12 -9 20 0 20 7 17 13 -6z m-1093 -84 c0 -2 -7
-7 -16 -10 -8 -3 -12 -2 -9 4 6 10 25 14 25 6z m-316 -42 c3 -8 2 -12 -4 -9
-6 3 -10 10 -10 16 0 14 7 11 14 -7z m2620 0 c3 -8 2 -12 -4 -9 -6 3 -10 10
-10 16 0 14 7 11 14 -7z m312 4 c3 -4 -1 -5 -10 -4 -8 1 -18 5 -22 8 -3 4 1 5
10 4 8 -1 18 -5 22 -8z m-2841 -46 c-3 -3 -11 0 -18 7 -9 10 -8 11 6 5 10 -3
15 -9 12 -12z m68 -7 c4 3 5 2 2 -2 -8 -10 -65 -11 -59 -1 3 5 10 5 16 2 8 -5
9 -1 4 11 -6 18 -6 18 12 2 10 -9 22 -15 25 -12z"/>
<path d="M6190 8335 c-7 -9 -11 -17 -9 -20 3 -2 10 5 17 15 14 24 10 26 -8 5z"/>
<path d="M3380 8336 c0 -2 7 -7 16 -10 8 -3 12 -2 9 4 -6 10 -25 14 -25 6z"/>
<path d="M6223 8308 c13 -20 23 -23 32 -8 4 6 1 9 -7 8 -7 -2 -12 2 -11 8 1 6
-4 11 -12 11 -10 0 -11 -4 -2 -19z"/>
<path d="M3611 8304 c-1 -7 8 -22 19 -35 10 -13 19 -18 20 -11 0 6 -4 12 -8
12 -5 0 -14 10 -20 23 -6 12 -11 17 -11 11z"/>
<path d="M3317 8283 c3 -7 6 -13 8 -13 2 0 5 6 8 13 3 8 -1 14 -8 14 -7 0 -11
-6 -8 -14z"/>
<path d="M5935 8260 c3 -5 8 -10 11 -10 2 0 4 5 4 10 0 6 -5 10 -11 10 -5 0
-7 -4 -4 -10z"/>
<path d="M6337 8239 c4 -13 8 -18 11 -10 2 7 -1 18 -6 23 -8 8 -9 4 -5 -13z"/>
<path d="M5910 8246 c0 -2 7 -7 16 -10 8 -3 12 -2 9 4 -6 10 -25 14 -25 6z"/>
<path d="M5835 8219 c-3 -4 2 -6 10 -5 21 3 28 13 10 13 -9 0 -18 -4 -20 -8z"/>
<path d="M5840 8190 c-9 -6 -10 -10 -3 -10 6 0 15 5 18 10 8 12 4 12 -15 0z"/>
<path d="M3210 8176 c7 -7 14 -6 21 1 9 9 7 12 -9 10 -14 -1 -18 -5 -12 -11z"/>
<path d="M3777 8175 c-4 -8 -3 -16 1 -19 4 -3 9 4 9 15 2 23 -3 25 -10 4z"/>
<path d="M6386 8182 c-3 -5 1 -9 9 -9 8 0 12 4 9 9 -3 4 -7 8 -9 8 -2 0 -6 -4
-9 -8z"/>
<path d="M5809 8173 c-1 -5 -1 -11 0 -15 1 -7 -11 -11 -29 -10 -3 0 -10 -6
-17 -13 -9 -10 -7 -13 12 -11 13 0 21 4 19 8 -2 3 1 8 8 10 10 4 22 38 12 38
-2 0 -5 -3 -5 -7z"/>
<path d="M4756 8157 c3 -10 9 -15 12 -12 3 3 0 11 -7 18 -10 9 -11 8 -5 -6z"/>
<path d="M4737 8143 c-4 -3 -7 -13 -7 -22 1 -13 3 -13 11 2 11 19 8 33 -4 20z"/>
<path d="M6395 8140 c-3 -5 -1 -10 4 -10 6 0 11 5 11 10 0 6 -2 10 -4 10 -3 0
-8 -4 -11 -10z"/>
<path d="M6430 8005 c0 -2 10 -10 23 -16 20 -11 21 -11 8 4 -13 16 -31 23 -31
12z"/>
<path d="M3975 7971 c-3 -5 -1 -12 5 -16 5 -3 10 1 10 9 0 18 -6 21 -15 7z"/>
<path d="M4513 7947 c0 -20 24 -30 33 -14 4 7 4 9 -1 5 -4 -4 -13 0 -20 8 -11
15 -12 15 -12 1z"/>
<path d="M4475 7921 c-3 -5 -2 -12 3 -15 5 -3 9 1 9 9 0 17 -3 19 -12 6z"/>
<path d="M4065 7900 c-3 -6 1 -7 9 -4 18 7 21 14 7 14 -6 0 -13 -4 -16 -10z"/>
<path d="M4457 7843 c-2 -5 -1 -19 3 -33 5 -21 7 -22 13 -8 3 10 1 21 -5 24
-8 5 -5 10 8 15 16 6 16 8 2 8 -9 1 -19 -2 -21 -6z"/>
<path d="M5482 7835 c2 -15 -2 -19 -17 -18 -11 1 -14 0 -6 -4 10 -4 10 -7 1
-13 -8 -5 -6 -9 6 -14 10 -4 15 -4 11 0 -4 4 -1 15 7 23 11 12 12 21 5 31 -8
12 -9 11 -7 -5z"/>
<path d="M4425 7800 c-3 -6 1 -7 9 -4 18 7 21 14 7 14 -6 0 -13 -4 -16 -10z"/>
<path d="M3113 7794 c10 -3 14 -10 10 -17 -14 -23 -12 -45 4 -51 13 -5 14 -4
4 8 -7 9 -8 17 -2 20 16 10 5 41 -15 43 -16 2 -16 1 -1 -3z"/>
<path d="M5165 7740 c-3 -6 1 -7 9 -4 18 7 21 14 7 14 -6 0 -13 -4 -16 -10z"/>
<path d="M6467 7707 c4 -6 8 -15 8 -19 0 -16 11 -15 12 2 1 10 -5 21 -13 24
-10 4 -13 2 -7 -7z"/>
<path d="M5225 7680 c-3 -6 1 -7 9 -4 18 7 21 14 7 14 -6 0 -13 -4 -16 -10z"/>
<path d="M4385 7670 c-3 -5 -12 -7 -20 -3 -8 3 -15 3 -15 0 0 -13 30 -14 40
-1 7 8 10 14 7 14 -3 0 -8 -4 -12 -10z"/>
<path d="M5347 7660 c3 -11 9 -20 15 -20 5 0 4 9 -2 20 -6 11 -12 20 -14 20
-2 0 -2 -9 1 -20z"/>
<path d="M5253 7654 c0 -9 4 -11 10 -5 5 5 17 7 26 4 9 -4 13 -3 10 1 -13 14
-46 14 -46 0z"/>
<path d="M4265 7651 c-3 -5 0 -13 6 -17 8 -4 9 -3 5 4 -4 7 -2 12 3 12 6 0 11
-5 11 -11 0 -5 5 -7 11 -3 8 4 7 9 -2 15 -18 11 -26 11 -34 0z"/>
<path d="M6475 7650 c-3 -6 1 -7 9 -4 18 7 21 14 7 14 -6 0 -13 -4 -16 -10z"/>
<path d="M6490 7599 c0 -5 5 -7 10 -4 6 3 10 8 10 11 0 2 -4 4 -10 4 -5 0 -10
-5 -10 -11z"/>
<path d="M3116 7423 c-6 -14 -5 -15 5 -6 7 7 10 15 7 18 -3 3 -9 -2 -12 -12z"/>
<path d="M6438 7346 c-10 -7 -15 -16 -11 -19 11 -12 10 -52 -1 -60 -7 -6 -6
-7 4 -4 10 2 15 16 15 39 0 20 4 40 9 45 5 5 7 1 3 -9 -3 -10 -3 -19 1 -22 4
-3 8 4 9 14 2 26 -8 31 -29 16z"/>
<path d="M3150 7285 c0 -8 4 -15 10 -15 5 0 7 7 4 15 -4 8 -8 15 -10 15 -2 0
-4 -7 -4 -15z"/>
<path d="M2616 7257 c5 -12 2 -16 -9 -12 -8 4 -17 0 -20 -8 -6 -15 16 -18 29
-4 4 3 14 2 24 -3 21 -11 31 -4 23 17 -5 12 -7 12 -14 1 -6 -10 -12 -9 -24 7
-12 16 -14 17 -9 2z"/>
<path d="M2720 7241 c0 -6 4 -13 10 -16 6 -3 7 1 4 9 -7 18 -14 21 -14 7z"/>
<path d="M6424 7224 c0 -15 4 -20 15 -16 11 4 11 7 2 10 -9 3 -8 7 4 16 15 11
15 12 -2 12 -13 0 -19 -7 -19 -22z"/>
<path d="M6651 7186 c2 -2 14 -9 26 -15 18 -9 22 -9 18 2 -3 7 -15 13 -26 14
-12 1 -20 1 -18 -1z"/>
<path d="M2947 7166 c-4 -10 -1 -13 9 -9 7 3 14 9 14 14 0 14 -17 10 -23 -5z"/>
<path d="M6486 7162 c-3 -5 1 -9 9 -9 8 0 12 4 9 9 -3 4 -7 8 -9 8 -2 0 -6 -4
-9 -8z"/>
<path d="M2980 7156 c0 -2 7 -9 15 -16 9 -7 15 -8 15 -2 0 5 -7 12 -15 16 -8
3 -15 4 -15 2z"/>
<path d="M3110 7146 c0 -2 7 -6 15 -10 8 -3 15 -1 15 4 0 6 -7 10 -15 10 -8 0
-15 -2 -15 -4z"/>
<path d="M6446 7142 c-3 -5 1 -9 9 -9 8 0 15 4 15 9 0 4 -4 8 -9 8 -6 0 -12
-4 -15 -8z"/>
<path d="M7228 6943 c7 -3 16 -2 19 1 4 3 -2 6 -13 5 -11 0 -14 -3 -6 -6z"/>
<path d="M7235 6920 c3 -5 8 -10 11 -10 2 0 4 5 4 10 0 6 -5 10 -11 10 -5 0
-7 -4 -4 -10z"/>
<path d="M7236 6833 c-6 -14 -5 -15 5 -6 7 7 10 15 7 18 -3 3 -9 -2 -12 -12z"/>
<path d="M2385 6770 c4 -6 9 -23 11 -37 6 -34 14 -43 14 -17 0 16 2 17 10 4 5
-8 10 -10 10 -4 0 6 -7 17 -15 24 -8 7 -13 16 -10 20 3 4 -2 11 -11 14 -9 3
-12 2 -9 -4z"/>
<path d="M2420 6659 c0 -5 5 -7 10 -4 6 3 10 8 10 11 0 2 -4 4 -10 4 -5 0 -10
-5 -10 -11z"/>
<path d="M7155 6619 c-4 -6 -5 -12 -2 -15 2 -3 7 2 10 11 7 17 1 20 -8 4z"/>
<path d="M7671 6507 c-8 -10 -7 -14 2 -14 8 0 14 6 14 14 0 7 -1 13 -2 13 -2
0 -8 -6 -14 -13z"/>
<path d="M2157 6493 c-4 -3 -7 -11 -7 -17 0 -6 5 -5 12 2 6 6 9 14 7 17 -3 3
-9 2 -12 -2z"/>
<path d="M7516 6487 c3 -10 9 -15 12 -12 3 3 0 11 -7 18 -10 9 -11 8 -5 -6z"/>
<path d="M7564 6480 c1 -17 25 -21 43 -8 6 5 14 5 18 -2 7 -12 25 -4 25 12 0
5 -7 8 -15 5 -8 -4 -17 -2 -21 4 -4 6 -13 4 -24 -6 -14 -13 -19 -14 -23 -3 -3
9 -4 8 -3 -2z"/>
<path d="M1627 6478 c-12 -10 -14 -17 -6 -28 9 -13 10 -13 6 0 -2 8 3 20 12
27 9 7 13 13 10 13 -3 0 -13 -6 -22 -12z"/>
<path d="M2045 6480 c-3 -5 -5 -10 -3 -11 33 -8 38 -7 27 7 -14 17 -16 17 -24
4z"/>
<path d="M2177 6476 c-6 -16 16 -40 26 -29 13 12 7 22 -8 17 -11 -5 -13 -2 -9
10 3 9 4 16 1 16 -3 0 -7 -6 -10 -14z"/>
<path d="M7790 6482 c0 -5 7 -9 15 -9 8 0 12 4 9 9 -3 4 -9 8 -15 8 -5 0 -9
-4 -9 -8z"/>
<path d="M7926 6473 c-6 -14 -5 -15 5 -6 7 7 10 15 7 18 -3 3 -9 -2 -12 -12z"/>
<path d="M1647 6463 c-4 -3 -7 -11 -7 -17 0 -6 5 -5 12 2 6 6 9 14 7 17 -3 3
-9 2 -12 -2z"/>
<path d="M2330 6461 c0 -8 -7 -11 -17 -6 -15 5 -16 4 -5 -6 9 -10 15 -10 24
-1 6 6 9 15 5 19 -4 3 -7 1 -7 -6z"/>
<path d="M7160 6452 c9 -19 30 -23 30 -5 0 4 -3 3 -7 0 -3 -4 -12 1 -20 11
-13 15 -13 15 -3 -6z"/>
<path d="M7266 6455 c-9 -26 -7 -32 5 -12 6 10 9 21 6 23 -2 3 -7 -2 -11 -11z"/>
<path d="M7297 6463 c-4 -3 -7 -11 -7 -17 0 -6 5 -5 12 2 6 6 9 14 7 17 -3 3
-9 2 -12 -2z"/>
<path d="M2346 6443 c-6 -14 -5 -15 5 -6 7 7 10 15 7 18 -3 3 -9 -2 -12 -12z"/>
<path d="M7210 6440 c0 -4 7 -7 15 -6 23 3 26 12 5 13 -11 1 -20 -2 -20 -7z"/>
<path d="M8282 6250 c7 -10 14 -18 15 -16 6 6 -9 36 -18 36 -5 0 -4 -9 3 -20z"/>
<path d="M8310 6259 c0 -5 5 -7 10 -4 6 3 10 8 10 11 0 2 -4 4 -10 4 -5 0 -10
-5 -10 -11z"/>
<path d="M8334 6196 c1 -8 5 -18 8 -22 4 -3 5 1 4 10 -1 8 -5 18 -8 22 -4 3
-5 -1 -4 -10z"/>
<path d="M1265 6147 c8 -13 12 -27 8 -32 -5 -4 -3 -5 4 -1 9 5 10 13 1 31 -6
14 -15 25 -20 25 -5 0 -2 -10 7 -23z"/>
<path d="M8310 6081 c0 -6 4 -12 8 -15 5 -3 9 1 9 9 0 8 -4 15 -9 15 -4 0 -8
-4 -8 -9z"/>
<path d="M1301 6013 c-1 -6 4 -15 9 -18 6 -4 8 -11 5 -16 -4 -5 -2 -9 4 -9 5
0 9 9 8 19 0 11 -4 18 -8 15 -4 -2 -10 2 -12 8 -4 9 -6 10 -6 1z"/>
<path d="M1335 5960 c-4 -6 -5 -10 -3 -11 25 -6 38 -6 38 1 0 12 -29 20 -35
10z"/>
<path d="M1344 5918 c-4 -6 -3 -8 3 -5 11 7 37 -16 28 -24 -2 -3 4 -5 14 -6
16 -1 15 2 -6 23 -27 28 -29 28 -39 12z"/>
<path d="M8215 5869 c-4 -6 -5 -12 -2 -15 2 -3 7 2 10 11 7 17 1 20 -8 4z"/>
<path d="M1380 5866 c0 -2 9 -6 20 -9 11 -3 18 -1 14 4 -5 9 -34 13 -34 5z"/>
<path d="M1447 5802 c3 -12 9 -25 14 -28 14 -8 11 10 -6 32 -13 18 -14 18 -8
-4z"/>
<path d="M8026 5691 c-3 -5 1 -14 8 -20 12 -10 13 -8 9 8 -6 23 -9 25 -17 12z"/>
<path d="M1616 5633 c-6 -14 -5 -15 5 -6 7 7 10 15 7 18 -3 3 -9 -2 -12 -12z"/>
<path d="M7942 5609 c-19 -17 -22 -39 -6 -39 3 0 2 5 -1 10 -3 6 -2 10 2 10 5
0 14 -4 21 -10 9 -7 9 -7 2 2 -15 18 -12 32 4 19 11 -10 14 -9 12 3 -4 26 -11
27 -34 5z"/>
<path d="M1656 5563 c-6 -14 -5 -15 5 -6 7 7 10 15 7 18 -3 3 -9 -2 -12 -12z"/>
<path d="M1770 5505 c0 -8 4 -15 10 -15 5 0 7 7 4 15 -4 8 -8 15 -10 15 -2 0
-4 -7 -4 -15z"/>
<path d="M7864 5504 c-18 -14 -18 -15 4 -4 12 6 22 13 22 15 0 8 -5 6 -26 -11z"/>
<path d="M1860 5419 c-12 -9 -12 -10 4 -5 14 5 17 2 12 -9 -3 -9 -2 -14 3 -10
5 3 12 -1 14 -7 3 -7 6 -8 6 -2 1 5 -5 18 -11 27 -10 13 -17 14 -28 6z"/>
<path d="M7713 5399 c-2 -23 3 -25 10 -4 4 8 3 16 -1 19 -4 3 -9 -4 -9 -15z"/>
<path d="M7624 5373 c3 -4 1 -12 -6 -20 -8 -10 -8 -17 1 -26 7 -7 12 -7 11 -2
-4 20 0 36 8 31 4 -2 14 -1 22 5 8 5 11 9 5 10 -5 0 -18 2 -28 4 -11 2 -16 1
-13 -2z"/>
<path d="M7585 5271 c-3 -5 -1 -12 5 -16 6 -4 8 -11 5 -16 -4 -5 -4 -9 -1 -9
3 0 10 9 16 20 9 16 8 19 -6 13 -12 -4 -15 -3 -10 5 4 7 5 12 2 12 -3 0 -7 -4
-11 -9z"/>
<path d="M7680 5210 c0 -5 0 -13 0 -17 0 -5 3 -8 8 -8 4 0 13 -4 20 -8 19 -12
14 1 -8 23 -11 11 -20 16 -20 10z"/>
<path d="M7765 5160 c3 -5 8 -10 11 -10 2 0 4 5 4 10 0 6 -5 10 -11 10 -5 0
-7 -4 -4 -10z"/>
<path d="M8010 5041 c0 -6 4 -13 10 -16 6 -3 7 1 4 9 -7 18 -14 21 -14 7z"/>
<path d="M1577 5005 c3 -8 9 -12 14 -9 12 7 11 11 -5 17 -10 4 -13 1 -9 -8z"/>
<path d="M8015 5000 c3 -5 8 -10 11 -10 2 0 4 5 4 10 0 6 -5 10 -11 10 -5 0
-7 -4 -4 -10z"/>
<path d="M8046 5002 c-3 -5 1 -9 9 -9 8 0 12 4 9 9 -3 4 -7 8 -9 8 -2 0 -6 -4
-9 -8z"/>
<path d="M1517 4973 c-10 -10 -8 -23 4 -23 5 0 8 4 5 9 -4 5 0 12 6 14 7 3 8
6 2 6 -6 1 -14 -2 -17 -6z"/>
<path d="M8123 4756 c3 -8 1 -17 -6 -19 -7 -3 -2 -4 11 -4 21 1 33 17 11 17
-5 0 -7 5 -4 10 3 6 1 10 -5 10 -7 0 -10 -6 -7 -14z"/>
<path d="M1470 4729 c0 -5 5 -7 10 -4 6 3 10 8 10 11 0 2 -4 4 -10 4 -5 0 -10
-5 -10 -11z"/>
<path d="M8085 4640 c3 -5 8 -10 11 -10 2 0 4 5 4 10 0 6 -5 10 -11 10 -5 0
-7 -4 -4 -10z"/>
<path d="M7881 4511 c-11 -7 -11 -9 0 -13 12 -4 11 -8 -1 -23 -9 -11 -10 -16
-3 -11 18 10 35 44 25 50 -4 2 -14 1 -21 -3z"/>
<path d="M1700 4499 c-13 -9 -13 -10 2 -6 19 6 42 -15 30 -28 -4 -5 -1 -5 5
-1 10 5 10 11 0 26 -14 23 -17 24 -37 9z"/>
<path d="M7793 4435 c0 -8 4 -12 9 -9 4 3 8 9 8 15 0 5 -4 9 -8 9 -5 0 -9 -7
-9 -15z"/>
<path d="M1864 4431 c4 -5 3 -11 -1 -14 -5 -2 -3 -2 4 -1 6 2 14 -2 17 -9 3
-8 5 -8 5 2 1 11 4 11 16 1 8 -7 15 -9 15 -4 0 5 5 2 11 -6 9 -13 10 -13 6 0
-2 8 -9 14 -15 13 -5 -1 -16 4 -22 12 -13 16 -45 21 -36 6z"/>
<path d="M7677 4414 c-11 -11 -8 -26 3 -19 6 3 10 1 10 -6 0 -7 3 -10 6 -6 3
3 2 13 -3 22 -5 8 -12 12 -16 9z"/>
<path d="M7750 4409 c0 -5 5 -7 10 -4 6 3 10 8 10 11 0 2 -4 4 -10 4 -5 0 -10
-5 -10 -11z"/>
<path d="M1980 4270 c-11 -7 -12 -12 -4 -20 9 -9 14 -9 18 -1 4 6 4 11 -1 11
-4 0 -1 5 7 10 8 5 11 10 5 10 -5 0 -17 -5 -25 -10z"/>
<path d="M1896 4221 c8 -8 43 -8 38 0 -2 4 -13 7 -24 6 -10 -1 -17 -3 -14 -6z"/>
<path d="M7697 4224 c7 -3 10 -11 7 -19 -7 -17 12 -29 22 -14 4 8 3 9 -4 5 -7
-4 -12 -2 -12 3 0 6 6 11 13 11 8 0 7 4 -3 10 -8 5 -19 9 -25 9 -5 0 -5 -3 2
-5z"/>
<path d="M1805 4180 c-3 -6 1 -7 9 -4 18 7 21 14 7 14 -6 0 -13 -4 -16 -10z"/>
<path d="M7835 4120 c3 -5 8 -10 11 -10 2 0 4 5 4 10 0 6 -5 10 -11 10 -5 0
-7 -4 -4 -10z"/>
<path d="M7885 4050 c-3 -5 3 -14 14 -20 17 -9 20 -8 14 6 -5 13 -3 15 8 9 8
-5 11 -4 6 0 -11 12 -36 15 -42 5z"/>
<path d="M1596 3997 c3 -10 9 -15 12 -12 3 3 0 11 -7 18 -10 9 -11 8 -5 -6z"/>
<path d="M7979 4008 c-6 -21 -5 -38 2 -38 4 0 6 -8 3 -17 -4 -11 -3 -14 3 -7
4 6 15 14 23 17 12 4 11 6 -2 6 -16 1 -23 12 -19 34 1 6 -8 11 -10 5z"/>
<path d="M1620 3974 c0 -8 5 -12 10 -9 6 4 8 11 5 16 -9 14 -15 11 -15 -7z"/>
<path d="M1533 3903 c4 -6 0 -13 -8 -17 -19 -7 -19 -23 0 -23 8 0 13 3 10 5
-3 3 0 11 6 18 7 8 6 14 -2 20 -7 4 -9 3 -6 -3z"/>
<path d="M1490 3862 c0 -6 -7 -18 -16 -27 -9 -9 -14 -18 -11 -21 3 -3 13 6 23
20 9 15 14 29 10 33 -3 3 -6 1 -6 -5z"/>
<path d="M8210 3720 c0 -5 5 -10 11 -10 5 0 7 5 4 10 -3 6 -8 10 -11 10 -2 0
-4 -4 -4 -10z"/>
<path d="M8216 3692 c-3 -5 1 -15 8 -21 11 -10 14 -9 12 3 -3 21 -13 29 -20
18z"/>
<path d="M8255 3679 c-4 -6 -5 -12 -2 -15 2 -3 7 2 10 11 7 17 1 20 -8 4z"/>
<path d="M1295 3573 c5 -19 3 -22 -12 -17 -15 5 -15 4 -3 -5 21 -14 35 3 21
26 -11 16 -11 16 -6 -4z"/>
<path d="M1284 3521 c4 -5 1 -12 -4 -14 -6 -3 -5 -4 2 -3 15 3 23 26 8 26 -6
0 -9 -4 -6 -9z"/>
<path d="M8309 3415 c-1 -3 -3 -9 -4 -15 -1 -5 -3 -14 -4 -19 0 -5 -13 -23
-27 -40 -14 -17 -23 -31 -19 -31 10 0 45 41 45 51 0 5 8 6 18 3 14 -5 15 -4 2
5 -13 10 -13 12 0 21 11 7 11 10 2 10 -7 0 -10 5 -7 10 3 6 4 10 1 10 -3 0 -7
-2 -7 -5z"/>
<path d="M1275 3340 c-3 -6 1 -7 9 -4 18 7 21 14 7 14 -6 0 -13 -4 -16 -10z"/>
<path d="M8295 3321 c-3 -5 -2 -12 3 -15 5 -3 9 1 9 9 0 17 -3 19 -12 6z"/>
<path d="M8223 3274 c0 -9 5 -10 17 -4 10 5 20 7 24 5 3 -3 4 -2 1 2 -10 12
-42 10 -42 -3z"/>
<path d="M2270 3161 c0 -6 4 -13 10 -16 6 -3 7 1 4 9 -7 18 -14 21 -14 7z"/>
<path d="M7255 3140 c-3 -6 1 -7 9 -4 18 7 21 14 7 14 -6 0 -13 -4 -16 -10z"/>
<path d="M7470 3141 c0 -3 4 -12 9 -19 6 -11 9 -9 13 5 3 12 0 20 -8 20 -8 0
-14 -3 -14 -6z"/>
<path d="M2041 3127 c-8 -10 -7 -14 2 -14 8 0 14 6 14 14 0 7 -1 13 -2 13 -2
0 -8 -6 -14 -13z"/>
<path d="M1950 3120 c0 -5 5 -10 11 -10 5 0 7 5 4 10 -3 6 -8 10 -11 10 -2 0
-4 -4 -4 -10z"/>
<path d="M7610 3120 c0 -5 5 -10 10 -10 6 0 10 5 10 10 0 6 -4 10 -10 10 -5 0
-10 -4 -10 -10z"/>
<path d="M7575 3100 c-3 -6 1 -7 9 -4 18 7 21 14 7 14 -6 0 -13 -4 -16 -10z"/>
<path d="M7788 3103 c6 -2 18 -2 25 0 6 3 1 5 -13 5 -14 0 -19 -2 -12 -5z"/>
<path d="M1876 3087 c3 -10 9 -15 12 -12 3 3 0 11 -7 18 -10 9 -11 8 -5 -6z"/>
<path d="M7135 3061 c-3 -5 -2 -12 3 -15 5 -3 9 1 9 9 0 17 -3 19 -12 6z"/>
<path d="M2410 2938 c0 -11 12 -10 30 2 12 7 10 9 -8 7 -12 0 -22 -5 -22 -9z"/>
<path d="M7212 2790 c7 -10 14 -18 15 -16 6 6 -9 36 -18 36 -5 0 -4 -9 3 -20z"/>
<path d="M7226 2542 c-3 -5 1 -9 9 -9 8 0 12 4 9 9 -3 4 -7 8 -9 8 -2 0 -6 -4
-9 -8z"/>
<path d="M6535 2460 c3 -5 8 -10 11 -10 2 0 4 5 4 10 0 6 -5 10 -11 10 -5 0
-7 -4 -4 -10z"/>
<path d="M6429 2458 c-1 -2 -2 -15 -3 -30 -2 -19 1 -25 11 -21 11 4 12 8 3 13
-9 6 -9 9 1 13 11 4 11 6 1 6 -7 1 -10 6 -7 11 3 6 4 10 1 10 -3 0 -6 -1 -7
-2z"/>
<path d="M7135 2440 c-10 -11 -21 -18 -24 -16 -4 3 -17 -3 -29 -13 -22 -16
-22 -17 -3 -18 12 -1 24 3 27 9 4 6 10 5 16 -3 6 -11 8 -9 6 6 -2 14 2 20 14
19 10 -1 15 3 12 8 -4 6 0 14 7 19 8 5 9 9 3 9 -6 0 -19 -9 -29 -20z"/>
<path d="M6703 2418 c13 -20 27 -24 27 -8 0 6 -5 10 -11 10 -5 0 -8 4 -5 8 3
5 -1 9 -8 9 -11 0 -12 -4 -3 -19z"/>
<path d="M2829 2413 c-10 -11 -10 -14 -1 -9 6 4 12 3 12 -3 0 -5 -5 -12 -10
-14 -6 -3 -5 -4 2 -3 7 1 14 12 14 24 2 26 0 27 -17 5z"/>
<path d="M2936 2422 c-3 -5 1 -9 9 -9 8 0 12 4 9 9 -3 4 -7 8 -9 8 -2 0 -6 -4
-9 -8z"/>
<path d="M6670 2420 c0 -5 5 -10 11 -10 5 0 7 5 4 10 -3 6 -8 10 -11 10 -2 0
-4 -4 -4 -10z"/>
<path d="M2708 2363 c7 -3 16 -2 19 1 4 3 -2 6 -13 5 -11 0 -14 -3 -6 -6z"/>
<path d="M3150 2339 c0 -5 5 -7 10 -4 6 3 10 8 10 11 0 2 -4 4 -10 4 -5 0 -10
-5 -10 -11z"/>
<path d="M3130 2280 c0 -5 5 -10 11 -10 5 0 7 5 4 10 -3 6 -8 10 -11 10 -2 0
-4 -4 -4 -10z"/>
<path d="M3115 2241 c-3 -5 -2 -12 3 -15 5 -3 9 1 9 9 0 17 -3 19 -12 6z"/>
<path d="M3130 2200 c-13 -11 -19 -20 -13 -20 5 0 18 9 28 20 10 11 16 20 13
20 -3 0 -15 -9 -28 -20z"/>
<path d="M6462 2130 c-9 -14 -8 -19 4 -24 9 -4 12 -2 8 5 -4 6 -1 15 6 19 7 4
8 10 3 13 -5 3 -14 -3 -21 -13z"/>
<path d="M6473 2004 c0 -7 4 -11 8 -8 4 2 10 -2 12 -8 4 -8 6 -7 6 3 1 9 -5
19 -12 22 -8 3 -14 -1 -14 -9z"/>
<path d="M4363 1955 c-8 -9 -9 -16 -3 -20 6 -3 10 0 10 7 0 10 3 9 9 -2 6 -8
8 -17 6 -20 -2 -4 2 -7 10 -7 11 0 10 5 -3 26 -9 14 -16 27 -16 27 -1 1 -7 -4
-13 -11z"/>
<path d="M4225 1951 c-3 -5 0 -13 6 -17 7 -4 9 -3 5 4 -3 5 0 13 6 15 9 4 10
6 1 6 -6 1 -14 -3 -18 -8z"/>
<path d="M5205 1951 c-2 -5 3 -15 12 -22 9 -8 14 -9 10 -2 -4 6 -2 13 5 15 8
3 6 7 -5 11 -9 3 -19 2 -22 -2z"/>
<path d="M3115 1940 c4 -6 11 -8 16 -5 14 9 11 15 -7 15 -8 0 -12 -5 -9 -10z"/>
<path d="M3113 1890 c1 -11 8 -20 15 -20 11 0 12 3 3 13 -6 8 -8 17 -4 20 3 4
1 7 -5 7 -6 0 -10 -9 -9 -20z"/>
<path d="M4210 1890 c-6 -11 -8 -20 -6 -20 3 0 10 9 16 20 6 11 8 20 6 20 -3
0 -10 -9 -16 -20z"/>
<path d="M4390 1876 c0 -2 7 -9 15 -16 13 -11 14 -10 9 4 -5 14 -24 23 -24 12z"/>
<path d="M5460 1800 c0 -5 6 -10 14 -10 9 0 12 -7 9 -20 -3 -11 -3 -20 0 -20
2 0 7 9 10 20 3 13 -1 24 -14 30 -13 7 -19 7 -19 0z"/>
<path d="M6475 1740 c3 -5 8 -10 11 -10 2 0 4 5 4 10 0 6 -5 10 -11 10 -5 0
-7 -4 -4 -10z"/>
<path d="M3095 1720 c3 -6 13 -10 21 -10 9 0 12 -5 8 -12 -5 -7 -3 -8 6 -3 9
5 10 2 6 -13 -4 -12 -2 -23 6 -28 7 -4 10 -4 6 1 -4 4 -3 14 2 20 7 8 4 17 -8
27 -21 19 -55 32 -47 18z"/>
<path d="M6469 1697 c-19 -15 -21 -44 -2 -44 9 0 10 4 3 11 -6 6 -4 16 7 28
18 21 15 23 -8 5z"/>
<path d="M4530 1620 c0 -5 5 -10 11 -10 5 0 7 5 4 10 -3 6 -8 10 -11 10 -2 0
-4 -4 -4 -10z"/>
<path d="M5059 1628 c-5 -18 -6 -38 -1 -34 7 8 12 36 6 36 -2 0 -4 -1 -5 -2z"/>
<path d="M5674 1569 c-3 -6 1 -18 11 -27 16 -16 17 -16 7 4 -6 12 -8 24 -5 28
3 3 4 6 0 6 -3 0 -9 -5 -13 -11z"/>
<path d="M4655 1519 c-4 -6 -5 -12 -2 -15 2 -3 7 2 10 11 7 17 1 20 -8 4z"/>
<path d="M4701 1491 c-11 -7 -9 -10 8 -16 13 -4 25 -4 28 -1 4 3 -1 6 -11 6
-9 0 -14 5 -11 10 8 12 4 12 -14 1z"/>
<path d="M5790 1470 c0 -5 5 -10 11 -10 5 0 7 5 4 10 -3 6 -8 10 -11 10 -2 0
-4 -4 -4 -10z"/>
<path d="M3756 1441 c-3 -5 1 -14 8 -20 10 -9 16 -9 21 -1 4 6 1 9 -7 8 -7 -2
-12 3 -10 10 2 14 -4 16 -12 3z"/>
<path d="M6315 1339 c-4 -6 -5 -12 -2 -15 2 -3 7 2 10 11 7 17 1 20 -8 4z"/>
<path d="M6005 1322 c4 -4 12 -7 18 -7 7 -1 11 -5 10 -11 -1 -5 7 -11 18 -11
10 -1 19 3 19 9 0 6 -3 8 -7 5 -3 -4 -13 -1 -21 5 -15 13 -49 21 -37 10z"/>
<path d="M3554 1306 c1 -8 5 -18 8 -22 4 -3 5 1 4 10 -1 8 -5 18 -8 22 -4 3
-5 -1 -4 -10z"/>
<path d="M6105 1309 c-4 -6 -2 -16 5 -22 10 -9 11 -9 6 0 -3 6 -1 13 6 15 9 3
9 6 1 11 -7 4 -15 2 -18 -4z"/>
</g>
</svg>
