<svg width="479" height="105" viewBox="0 0 479 105" fill="none" xmlns="http://www.w3.org/2000/svg">
<rect width="248" height="105" fill="white" fill-opacity="0.9"/>
<rect x="269" width="210" height="105" fill="white" fill-opacity="0.9"/>
<path d="M15.8656 19.952H46.5856C52.8576 19.952 57.3376 21.36 60.0256 24.176C62.7776 26.992 64.1536 31.12 64.1536 36.56C64.1536 40.976 63.2576 44.496 61.4656 47.12C59.6736 49.68 56.7936 51.344 52.8256 52.112V52.496C57.3696 53.328 60.5056 55.088 62.2336 57.776C63.9616 60.464 64.8256 64.08 64.8256 68.624C64.8256 74 63.4816 78.256 60.7936 81.392C58.1696 84.464 53.3376 86 46.2976 86H15.8656V19.952ZM43.8976 48.752C47.9936 48.752 51.0016 47.888 52.9216 46.16C54.9056 44.432 55.8976 41.776 55.8976 38.192C55.8976 35.504 55.5456 33.424 54.8416 31.952C54.1376 30.48 52.9216 29.392 51.1936 28.688C49.5296 27.984 47.0976 27.632 43.8976 27.632H24.1216V48.752H43.8976ZM44.2816 78.32C47.4816 78.32 49.9456 77.968 51.6736 77.264C53.4656 76.56 54.7136 75.44 55.4176 73.904C56.1856 72.304 56.5696 70.128 56.5696 67.376C56.5696 63.408 55.6416 60.592 53.7856 58.928C51.9296 57.264 48.7616 56.432 44.2816 56.432H24.1216V78.32H44.2816ZM80.0551 86V14.672H87.8311V86H80.0551ZM117.486 86.768C111.854 86.768 107.758 85.744 105.198 83.696C102.638 81.584 101.358 77.872 101.358 72.56C101.358 68.784 101.806 65.84 102.702 63.728C103.598 61.616 105.102 60.08 107.214 59.12C109.39 58.16 112.43 57.68 116.334 57.68C118.19 57.68 124.302 57.84 134.67 58.16V55.28C134.67 51.44 134.286 48.72 133.518 47.12C132.814 45.52 131.47 44.496 129.486 44.048C127.566 43.6 124.27 43.376 119.598 43.376C117.55 43.376 114.958 43.504 111.822 43.76C108.75 43.952 106.35 44.176 104.622 44.432V37.616C109.678 36.72 115.598 36.272 122.382 36.272C128.142 36.272 132.43 36.88 135.246 38.096C138.126 39.248 140.046 41.168 141.006 43.856C141.966 46.48 142.446 50.32 142.446 55.376V86H135.438L135.054 79.184H134.478C133.134 82.256 130.958 84.304 127.95 85.328C125.006 86.288 121.518 86.768 117.486 86.768ZM120.462 79.76C123.662 79.76 126.254 79.472 128.238 78.896C130.286 78.32 131.758 77.2 132.654 75.536C133.998 73.232 134.67 70.032 134.67 65.936V63.728H118.35C115.662 63.728 113.678 63.92 112.398 64.304C111.182 64.688 110.318 65.456 109.806 66.608C109.294 67.696 109.038 69.424 109.038 71.792C109.038 74.096 109.326 75.792 109.902 76.88C110.478 77.968 111.534 78.736 113.07 79.184C114.67 79.568 117.134 79.76 120.462 79.76ZM190.284 85.52C188.556 85.84 186.444 86.128 183.948 86.384C181.516 86.64 179.18 86.768 176.94 86.768C170.924 86.768 166.508 85.904 163.692 84.176C160.876 82.448 159.052 79.888 158.22 76.496C157.452 73.104 157.068 68.112 157.068 61.52C157.068 55.056 157.548 50.064 158.508 46.544C159.468 43.024 161.356 40.432 164.172 38.768C166.988 37.104 171.148 36.272 176.652 36.272C178.828 36.272 181.132 36.4 183.564 36.656C186.06 36.912 188.172 37.2 189.9 37.52V44.432C186.06 43.728 182.284 43.376 178.572 43.376C174.476 43.376 171.468 43.856 169.548 44.816C167.692 45.776 166.444 47.472 165.804 49.904C165.164 52.336 164.844 56.208 164.844 61.52C164.844 66.896 165.164 70.832 165.804 73.328C166.508 75.76 167.788 77.424 169.644 78.32C171.564 79.216 174.636 79.664 178.86 79.664C181.996 79.664 185.804 79.344 190.284 78.704V85.52ZM234.536 86L217.256 64.88H211.112V86H203.336V14.672H211.112V57.68H217.256L234.632 37.04H243.368L223.496 60.752L243.656 86H234.536ZM254.899 86V14.672H262.675V86H254.899ZM298.666 86.768C291.818 86.768 286.922 86.096 283.978 84.752C281.034 83.344 279.146 81.008 278.314 77.744C277.546 74.416 277.162 69.008 277.162 61.52C277.162 54.032 277.546 48.656 278.314 45.392C279.146 42.064 281.034 39.728 283.978 38.384C286.922 36.976 291.818 36.272 298.666 36.272C305.45 36.272 310.314 36.976 313.258 38.384C316.202 39.728 318.058 42.064 318.826 45.392C319.658 48.656 320.074 54.032 320.074 61.52C320.074 69.008 319.658 74.416 318.826 77.744C318.058 81.008 316.202 83.344 313.258 84.752C310.314 86.096 305.45 86.768 298.666 86.768ZM298.666 79.664C303.338 79.664 306.57 79.248 308.362 78.416C310.154 77.584 311.242 76.08 311.626 73.904C312.074 71.664 312.298 67.536 312.298 61.52C312.298 55.504 312.074 51.408 311.626 49.232C311.242 46.992 310.154 45.456 308.362 44.624C306.57 43.792 303.338 43.376 298.666 43.376C293.994 43.376 290.73 43.792 288.874 44.624C287.082 45.456 285.962 46.992 285.514 49.232C285.13 51.408 284.938 55.504 284.938 61.52C284.938 67.536 285.13 71.664 285.514 73.904C285.962 76.08 287.082 77.584 288.874 78.416C290.73 79.248 293.994 79.664 298.666 79.664ZM338.243 86V44.144H328.355V37.04H338.243V22.832H346.019V37.04H357.731V44.144H346.019V86H338.243ZM402.215 79.088H401.639C400.551 81.584 398.759 83.504 396.263 84.848C393.767 86.128 390.151 86.768 385.415 86.768C380.743 86.768 377.191 86.096 374.759 84.752C372.391 83.408 370.791 81.424 369.959 78.8C369.127 76.112 368.711 72.4 368.711 67.664V37.04H376.487V64.592C376.487 69.2 376.743 72.464 377.255 74.384C377.831 76.304 378.919 77.584 380.519 78.224C382.119 78.864 384.807 79.184 388.583 79.184C392.615 79.184 395.559 78.544 397.415 77.264C399.335 75.984 400.551 74.224 401.063 71.984C401.575 69.68 401.831 66.448 401.831 62.288V37.04H409.607V86H402.599L402.215 79.088ZM442.404 86.768C439.78 86.768 436.804 86.64 433.476 86.384C430.148 86.128 427.204 85.84 424.644 85.52V78.608C430.98 79.312 436.772 79.664 442.02 79.664C445.284 79.664 447.684 79.44 449.22 78.992C450.756 78.544 451.748 77.84 452.196 76.88C452.708 75.856 452.964 74.352 452.964 72.368C452.964 70.384 452.772 68.976 452.388 68.144C452.068 67.248 451.524 66.64 450.756 66.32C449.988 66 448.644 65.744 446.724 65.552L433.956 64.112C431.012 63.792 428.74 63.12 427.14 62.096C425.604 61.072 424.548 59.664 423.972 57.872C423.396 56.08 423.108 53.68 423.108 50.672C423.108 46.512 423.844 43.408 425.316 41.36C426.852 39.248 428.932 37.872 431.556 37.232C434.244 36.592 437.828 36.272 442.308 36.272C444.804 36.272 447.492 36.4 450.372 36.656C453.252 36.912 455.684 37.232 457.668 37.616V44.528C452.676 43.76 447.524 43.376 442.212 43.376C439.268 43.376 437.028 43.536 435.492 43.856C433.956 44.112 432.772 44.752 431.94 45.776C431.108 46.736 430.692 48.272 430.692 50.384C430.692 52.24 430.852 53.584 431.172 54.416C431.492 55.248 432.036 55.824 432.804 56.144C433.572 56.464 434.852 56.72 436.644 56.912L449.892 58.448C452.708 58.768 454.82 59.312 456.228 60.08C457.7 60.784 458.756 62.064 459.396 63.92C460.1 65.776 460.452 68.528 460.452 72.176C460.452 76.208 459.78 79.28 458.436 81.392C457.156 83.504 455.236 84.944 452.676 85.712C450.18 86.416 446.756 86.768 442.404 86.768Z" fill="black" fill-opacity="0.9"/>
<line x1="259" y1="15" x2="259" y2="86" stroke="white" stroke-opacity="0.9" stroke-width="8"/>
</svg>