<svg width="64" height="64" viewBox="0 0 64 64" fill="none" xmlns="http://www.w3.org/2000/svg">
<g clip-path="url(#clip0)">
<path fill-rule="evenodd" clip-rule="evenodd" d="M63.3468 19.2038C63.3468 19.2038 62.722 14.7923 60.7991 12.8553C58.3625 10.3076 55.6341 10.2911 54.3868 10.1435C45.4375 9.49145 31.9964 9.49146 31.9964 9.49146H31.9728C31.9728 9.49146 18.5376 9.49145 9.58351 10.1435C8.33151 10.2958 5.60671 10.3065 3.17121 12.8553C1.24721 14.7923 0.63541 19.2038 0.63541 19.2038C0.63541 19.2038 -0.00119019 24.3806 -0.00119019 29.5681V34.419C-0.00119019 39.5958 0.63541 44.7833 0.63541 44.7833C0.63541 44.7833 1.26021 49.1947 3.17121 51.1353C5.60671 53.683 8.80751 53.6003 10.2367 53.872C15.3604 54.361 32.0011 54.5086 32.0011 54.5086C32.0011 54.5086 45.454 54.4849 54.4033 53.8448C55.6553 53.6971 58.3789 53.6818 60.8156 51.1329C62.7396 49.1959 63.3632 44.7797 63.3632 44.7797C63.3632 44.7797 64 39.603 64 34.4154V29.5646C63.987 24.3877 63.3503 19.2003 63.3503 19.2003L63.3468 19.2038V19.2038ZM25.3668 40.3045V22.3173L42.656 31.341L25.3668 40.3045V40.3045Z" fill="white" fill-opacity="0.9"/>
</g>
<defs>
<clipPath id="clip0">
<rect width="64" height="64" fill="white"/>
</clipPath>
</defs>
</svg>
